<?xml version="1.0" encoding="utf-8"?>
<!-- Generator: Adobe Illustrator 23.1.1, SVG Export Plug-In . SVG Version: 6.00 Build 0)  -->
<svg version="1.1" id="Livello_1" xmlns="http://www.w3.org/2000/svg" xmlns:xlink="http://www.w3.org/1999/xlink" x="0px" y="0px"
	 viewBox="0 0 509.1 85.2" style="enable-background:new 0 0 509.1 85.2;" xml:space="preserve">
<style type="text/css">
	.st0{fill:#414745;}
	.st1{fill:#D12B38;}
</style>
<g>
	<path class="st0" d="M72.2,81.7H3.3V71.4l42.3-48.2l7-6.6v-0.2H4.3V3.6h67.5v10.2L29.8,62L23,68.7V69h49.3v12.7H72.2z"/>
	<path class="st0" d="M227.9,81.7h-17.6L193.7,60l-4.5-7.4H189l-4.5,7.4l-16.6,21.7h-17.4l30.1-39l-30.2-39H168l17,22.1l4,6.6h0.2
		l4-6.6l17.2-22.2h17.4l-30,38.9L227.9,81.7z"/>
	<path class="st0" d="M298.1,16.3h-27l0.1,65.3h-14V16.3h-27V3.6h67.9V16.3z"/>
	<g>
		<path class="st1" d="M381.9,3.6l-29.5,63.2l-5.7-11.3c-2.1-4-5.5-7.2-8.2-8.3V47c7.2-3.3,13.8-10.5,13.8-19.4
			c0-16.3-13.5-24-28.6-24h-21.3v12.7h21.3c8.9,0,14.4,3.2,14.4,11.3c0,6.2-5,11.1-15.4,11.1h-20.2v12.6h13.8
			c9.4,0,14.5,3.1,17.7,9.7l10.4,20.6h16.5l8.6-18.6h37.8l8.6,18.6h15.3l-36.4-78H381.9z M402.3,50.4h-27.8l1-1.3l12.8-28.3h0.2
			l12.8,28.3L402.3,50.4z"/>
		<path class="st1" d="M474.6,37.4c-1.8-0.5-10.9-2.8-12.5-3.3c-13.6-3.6-17.2-6.1-17.2-9.7c0-3.9,4.4-9.1,18.8-9.1
			c9.5,0,16.6,3.6,22.5,10.4l10-10c-8.6-8.7-19.5-13-32.6-13c-22,0-33,10.3-33,22.2c0,12.6,11.4,17.7,25.4,21.5
			c1.7,0.5,12.7,3.2,14.5,3.7c10.2,2.5,13.3,6.6,13.3,10c0,4.9-5.4,9.9-19.7,9.9c-9.3,0-16.4-2.7-25.9-11l-10,9.9
			c10,9.9,23.4,13.8,36.3,13.8c23.8,0,33.5-11.3,33.5-23.2C498.1,49.5,490.7,41.4,474.6,37.4z"/>
	</g>
	<g>
		<rect x="80.4" y="36.3" class="st0" width="58.6" height="12.7"/>
		<rect x="80.4" y="69" class="st0" width="63.2" height="12.7"/>
		<rect x="80.4" y="3.6" class="st0" width="63.2" height="12.7"/>
	</g>
	<g>
		<path class="st0" d="M501.6,11c-2.3,0-4.2-1.9-4.2-4.2s1.9-4.2,4.2-4.2c2.3,0,4.2,1.9,4.2,4.2C505.8,9.1,503.9,11,501.6,11z
			 M501.6,3.1c-2,0-3.7,1.8-3.7,3.8s1.6,3.8,3.7,3.8c2,0,3.7-1.7,3.7-3.8C505.2,4.8,503.6,3.1,501.6,3.1z M503.8,9.2h-0.6L502.5,8
			c-0.2-0.5-0.6-0.7-1.2-0.7h-1.2l0.1,0.1v1.9h-0.6V4.4h2.1c0.9,0,1.6,0.5,1.6,1.4c0,0.5-0.3,0.9-0.9,1.3c0.3,0.3,0.4,0.4,0.6,0.7
			L503.8,9.2z M501.8,5h-1.6l0.1,0.1v1.6l-0.1,0.1h1.6c0.7,0,1.1-0.4,1.1-0.9C502.8,5.2,502.4,5,501.8,5z"/>
	</g>
</g>
</svg>
