<svg viewBox="0 0 829 111" fill="currentColor" xmlns="http://www.w3.org/2000/svg">
<path d="M306.721 72.4395C303.837 66.8411 299.426 62.9393 295.863 61.3276V61.0732C305.364 56.7472 314.1 46.3987 314.1 35.0324C314.1 12.1301 294.421 1.52722 273.046 1.52722H221.134V21.6303H272.198H273.046C284.836 21.6303 291.198 26.3804 291.198 35.5414C291.198 42.4969 285.6 49.0283 272.198 49.1979H272.028C271.943 49.1979 271.858 49.1979 271.689 49.1979H221.134V68.368H262.782C275.251 68.368 281.274 72.1002 285.685 80.4129L300.359 108.744H325.636L306.721 72.4395Z"/>
<path d="M412.835 53.0995V52.9298C419.536 48.4342 422.844 41.0546 422.844 32.5723C422.844 16.0317 410.12 1.61176 385.437 1.61176H331.404V21.7149H384.164C396.209 21.7149 400.026 26.0409 400.026 32.8267C400.026 38.934 397.142 44.3627 384.164 44.3627H331.404V63.1086H386.539C400.45 63.1086 404.692 68.7918 404.692 76.0866C404.692 83.4662 401.129 88.6404 386.539 88.6404H331.404V108.744H386.539C412.156 108.744 427.509 96.6138 427.509 76.3411C427.509 64.7203 421.571 56.1531 412.835 53.0995Z"/>
<path d="M157.517 1.44238L117.057 88.1318L107.047 108.574H128.508L140.383 83.0424H192.295L204.17 108.574H225.206L175.16 1.44238H157.517ZM185.594 65.5688H147.423L148.696 63.8723L166.339 24.9384H166.593L184.321 63.8723L185.594 65.5688Z"/>
<path d="M102.891 91.0127C91.4395 103.397 76.0865 110.268 57.595 110.268C19.7638 110.268 0 87.7894 0 55.7262C0 23.5782 20.6121 0.0821533 57.7647 0.0821533C77.0195 0.0821533 91.5243 6.18943 102.806 18.9129L87.2832 34.4356C80.3276 25.0202 70.6578 20.1004 57.7647 20.1004C33.3356 20.1004 22.9871 35.199 22.9871 55.7262C22.9871 75.4901 32.657 90.0797 57.6798 90.0797C70.573 90.0797 80.6669 85.0751 87.7073 75.9142L102.891 91.0127Z"/>
<path d="M661.451 108.828H642.451L594.017 49.6212L586.044 36.9826H585.789V108.828H563.226V1.27197H582.226L631.254 60.4786L638.719 72.6932H638.973V1.27197H661.536V108.828H661.451Z"/>
<path d="M702.506 108.828H679.943V1.27197H702.506V108.828Z"/>
<path d="M773.419 110.185C737.199 110.185 718.029 87.7921 718.029 55.7289C718.029 23.7505 737.114 0 773.419 0C809.893 0 828.808 23.7505 828.808 55.7289C828.723 87.7073 809.129 110.185 773.419 110.185ZM773.419 20.1031C750.601 20.1031 741.016 34.9472 741.016 55.7289C741.016 75.7472 750.601 89.9975 773.419 89.9975C796.49 89.9975 805.821 75.832 805.821 55.7289C805.821 35.541 796.49 20.1031 773.419 20.1031Z"/>
<path d="M494.35 110.27C458.13 110.27 438.96 87.8769 438.96 55.8137C438.96 23.8354 458.045 0.0848389 494.35 0.0848389C530.824 0.0848389 549.739 23.8354 549.739 55.8137C549.739 87.8769 530.06 110.27 494.35 110.27ZM494.35 20.2728C471.532 20.2728 461.947 35.1168 461.947 55.8986C461.947 75.9168 471.532 90.1672 494.35 90.1672C517.422 90.1672 526.752 76.0017 526.752 55.8986C526.752 35.7106 517.507 20.2728 494.35 20.2728Z"/>
</svg>
