<?xml version="1.0" encoding="utf-8"?>
<!-- Generator: Adobe Illustrator 25.4.1, SVG Export Plug-In . SVG Version: 6.00 Build 0)  -->
<svg version="1.1" id="Layer_1" xmlns="http://www.w3.org/2000/svg" xmlns:xlink="http://www.w3.org/1999/xlink" x="0px" y="0px"
	 viewBox="0 0 32 32" style="enable-background:new 0 0 32 32;" xml:space="preserve">
<style type="text/css">
	.st0{fill:#182126;}
	.st1{fill:#FFFFFF;}
</style>
<g>
	<g>
		<polygon class="st0" points="2.7,23.6 2.7,8.4 15.9,0.8 29.1,8.4 29.1,23.6 15.9,31.2 		"/>
		<path class="st1" d="M15.9,1.5l12.5,7.2v14.5l-12.5,7.2L3.4,23.2V8.8L15.9,1.5 M15.9,0L2.1,8v16l13.8,8l13.8-8V8L15.9,0L15.9,0z"
			/>
	</g>
	<path class="st1" d="M21.5,20.1c-1.3,1.4-3,2.2-5.1,2.2c-4.3,0-6.5-2.5-6.5-6.2c0-3.6,2.3-6.3,6.5-6.3c2.2,0,3.8,0.7,5.1,2.1
		l-1.8,1.8c-0.8-1.1-1.9-1.6-3.3-1.6c-2.8,0-3.9,1.7-3.9,4c0,2.2,1.1,3.9,3.9,3.9c1.5,0,2.6-0.6,3.4-1.6L21.5,20.1z"/>
</g>
</svg>
