<?xml version="1.0" encoding="utf-8"?>
<!-- Generator: Adobe Illustrator 23.1.1, SVG Export Plug-In . SVG Version: 6.00 Build 0)  -->
<svg version="1.1" id="Capa_1" xmlns="http://www.w3.org/2000/svg" xmlns:xlink="http://www.w3.org/1999/xlink" x="0px" y="0px"
	 viewBox="0 0 512 512" style="enable-background:new 0 0 512 512;" xml:space="preserve">
<style type="text/css">
	.st0{fill:#a0a4a9;}
</style>
<g>
	<path class="st0" d="M256,46c-11.2,0-22.4,0.8-33.2,2.4c-0.1-0.4-0.3-0.8-0.5-1c6-4.7,9.2-11.2,7.8-17.6
		c-1.8-8.2-10.5-13.8-21.8-13.8c-2.4,0-4.9,0.3-7.3,0.8c-14.2,3-23.5,13.4-21.3,23.7c1.3,6.3,6.7,11,14.2,12.8c0,0.5,0,0.9,0,1.4
		C99.8,81.6,31,168.2,31,271c0,124.2,100.8,225,225,225s225-100.8,225-225S380.2,46,256,46z M187,39c-1.3-6,5.8-12.8,15.6-14.8
		c2-0.4,3.8-0.7,5.8-0.7c7.5,0,13.4,3.2,14.4,7.8c0.8,3.6-1.4,7.3-5.3,10.3c-3.3-2.3-7.5-3.4-11.8-2.4c-4.2,0.9-7.7,3.6-9.7,6.9
		C191.2,45,187.8,42.3,187,39z M376.7,391.7c-20.6,20.6-45.6,35.3-72.8,43.2l-19.9-32.2l-5.1,37.5c-7.5,1-15.2,1.5-23,1.5
		c-45.6,0-88.4-17.7-120.7-50C114.6,371,100,346.1,92,318.8l32.2-19.9l-37.5-5.1c-1-7.5-1.5-15.2-1.5-23c0-45.6,17.7-88.4,50-120.7
		c20.6-20.6,45.6-35.3,72.8-43.2l19.9,32.3l5.1-37.5c7.5-1,15.2-1.5,23-1.5c45.6,0,88.4,17.7,120.7,50
		c20.6,20.6,35.3,45.6,43.2,72.8L387.6,243l37.5,5.1c1,7.5,1.5,15.2,1.5,23C426.6,316.6,408.9,359.4,376.7,391.7z M372.7,154.3
		l-92.3,70.2c-6.8-3.6-14.4-5.6-22.2-6l-23.9-50.2l-1.4,55.6c-6.2,3.1-11.8,7.3-16.3,12.7L187,226l21.6,22.8
		c-3,6.4-4.6,13.1-4.9,20.1l-50.2,23.9l55.7,1.4c0.2,0.4,0.4,0.8,0.6,1l-70.2,92.3l92.3-70.2c6.8,3.6,14.4,5.6,22.2,6l23.9,50.2
		l1.4-55.6c6.2-3.1,11.8-7.3,16.3-12.7l29.5,10.5L303.6,293c3-6.4,4.6-13.1,4.9-20.1l50.2-23.9l-55.7-1.4c-0.2-0.4-0.4-0.8-0.6-1
		L372.7,154.3z M256.1,224.4v1.6V224.4L256.1,224.4z M246.6,226.9c3.2-0.7,6.3-1,9.4-1c2,0,3.8,0.1,5.7,0.4l0,0l0,0
		c4.1,0.6,8.1,1.7,11.8,3.2l-33.5,25.6l-25.5,33.6c-1.1-2.6-2-5.3-2.6-8.2C206.8,256,222.3,232.2,246.6,226.9z M279.5,309.3
		L279.5,309.3L279.5,309.3c-4.2,2.6-9,4.5-14.2,5.6c-3.2,0.7-6.3,1-9.4,1c-2,0-3.8-0.1-5.8-0.4l0,0l0,0c-4.1-0.6-8.1-1.7-11.8-3.2
		l33.6-25.5l25.5-33.6c1.1,2.6,2,5.3,2.6,8.2C304.1,280.8,295.3,299.7,279.5,309.3z"/>
</g>
</svg>
