<?xml version="1.0" encoding="utf-8"?>
<!-- Generator: Adobe Illustrator 24.1.2, SVG Export Plug-In . SVG Version: 6.00 Build 0)  -->
<svg version="1.1" id="Layer_1" xmlns="http://www.w3.org/2000/svg" xmlns:xlink="http://www.w3.org/1999/xlink" x="0px" y="0px"
	 viewBox="0 0 512 512" enable-background="new 0 0 512 512" xml:space="preserve">
<g>
	<title>Edge_Logo_265x265</title>
	<g>
		<g>
			<path fill="#a0a4a9" d="M216.385,469.452l0.633,0.362c29.725,18.619,65.076,25.226,99.542,18.614
				c5.639-1.227,11.017-2.622,15.37-3.997l2.392-0.807c51.431-17.804,95.8-53.026,124.875-99.16l-0.015-0.12
				c-0.02-0.01-0.05-0.01-0.07,0c-7.015,3.677-14.17,6.877-21.434,9.607c-23.177,8.684-47.434,13.062-72.196,13.012
				c-98.713,0-179.032-68.065-179.032-151.73c0.061-5.665,0.815-11.218,2.199-16.56c-21.517,21.966-35.645,50.016-40.48,81.024
				c-6.121,39.265,3.391,78.564,26.789,110.664C186.166,446.114,200.085,459.24,216.385,469.452z"/>
		</g>
		<g>
			<path fill="#a0a4a9" d="M162.974,132.584c-73.518,0-136.236,45.564-145.89,105.986c-0.705,5.052-1.075,10.029-1.075,14.646
				c-0.323,36.172,7.534,72.562,22.725,105.307C76.057,438.262,152.216,488.678,235.17,496c-8.916-3.445-17.563-7.742-25.825-12.877
				l-0.612-0.35c-18.225-11.329-33.775-25.941-46.217-43.432c-25.76-35.34-36.257-78.699-29.501-122.016
				c6.754-43.317,29.949-81.406,65.314-107.253c7.605-5.56,15.749-10.493,24.203-14.664l0.828-0.392
				c6.654-3.151,17.833-8.424,32.78-8.149c13.106,0.095,25.878,3.96,36.825,10.844c-9.499-14.66-24.357-31.819-52.259-46.489
				C206.949,133.482,170.032,132.584,162.974,132.584z"/>
		</g>
		<g>
			<path fill="#a0a4a9" d="M162.974,117.225c10.802,0,48.843,1.471,84.859,20.398c28.154,14.803,47.517,33.174,62.785,59.565
				c14.397,24.888,15.126,55.236,15.126,61.067c0,13.084-6.551,30.068-16.689,43.272l-0.007,0.008
				c-0.709,0.922-1.493,1.675-2.252,2.4c-1.937,1.855-2.539,2.632-2.539,3.882c0,2.3,2.137,5.112,5.859,7.717
				c24.957,17.379,73.619,15.541,75.679,15.449l0.372-0.007c19.222-0.048,38.133-5.272,54.674-15.109
				c33.956-19.853,55.068-56.591,55.148-95.906c0.457-39.353-13.378-66.447-20.026-79.469l-1.096-2.156
				C436.347,62.886,352.433,16,255.883,16c-0.007,0-0.017,0-0.025,0c-63.489,0-123.35,24.581-168.56,69.216
				c-26.447,26.111-46.111,57.333-58.059,91.481C58.662,140.829,107.769,117.225,162.974,117.225z"/>
		</g>
	</g>
</g>
</svg>
