<?xml version="1.0" encoding="utf-8"?>
<!-- Generator: Adobe Illustrator 23.1.1, SVG Export Plug-In . SVG Version: 6.00 Build 0)  -->
<svg version="1.1" id="Capa_1" xmlns="http://www.w3.org/2000/svg" xmlns:xlink="http://www.w3.org/1999/xlink" x="0px" y="0px"
	 viewBox="0 0 512 512" style="enable-background:new 0 0 512 512;" xml:space="preserve">
<style type="text/css">
	.st0{fill:#a0a4a9;}
</style>
<path class="st0" d="M154.7,193.8L111.2,64.6C151.3,34.1,201.6,16,256,16c89.4,0,167.2,48.8,208.6,121.3H261.7
	c-1.9,0-3.8-0.2-5.7-0.2C213.1,137.1,175.7,159.8,154.7,193.8z M374.9,256c0,40.1-20,75.6-50.3,97.1L174,481.6
	c25.5,9.3,53.1,14.4,82,14.4c132.5,0,240-107.5,240-240c0-26.8-4.5-52.2-12.3-76.2H347.3C364.5,200.4,374.9,226.9,374.9,256z
	 M132.2,461.6l103.6-88.4c-46.7-8.1-84.1-43.3-95.2-89L77,96.3C39.2,138.5,16,194.6,16,256C16,343.3,62.5,419.5,132.2,461.6z
	 M256,330.3c41,0,74.3-33.3,74.3-74.3S297,181.7,256,181.7S181.7,215,181.7,256S215,330.3,256,330.3z"/>
</svg>
