<?xml version="1.0" encoding="utf-8"?>
<!-- Generator: Adobe Illustrator 23.1.1, SVG Export Plug-In . SVG Version: 6.00 Build 0)  -->
<svg version="1.1"
	 id="svg2" xmlns:cc="http://creativecommons.org/ns#" xmlns:dc="http://purl.org/dc/elements/1.1/" xmlns:inkscape="http://www.inkscape.org/namespaces/inkscape" xmlns:rdf="http://www.w3.org/1999/02/22-rdf-syntax-ns#" xmlns:sodipodi="http://sodipodi.sourceforge.net/DTD/sodipodi-0.dtd" xmlns:svg="http://www.w3.org/2000/svg"
	 xmlns="http://www.w3.org/2000/svg" xmlns:xlink="http://www.w3.org/1999/xlink" x="0px" y="0px" viewBox="0 0 512 512"
	 style="enable-background:new 0 0 512 512;" xml:space="preserve">
<style type="text/css">
	.st0{fill-rule:evenodd;clip-rule:evenodd;fill:#a0a4a9;}
</style>
<sodipodi:namedview  bordercolor="#666666" borderopacity="1" fit-margin-bottom="0" fit-margin-left="0" fit-margin-right="0" fit-margin-top="0" gridtolerance="10" guidetolerance="10" id="namedview1688" inkscape:current-layer="svg2" inkscape:cx="217.65229" inkscape:cy="240.25457" inkscape:pageopacity="0" inkscape:pageshadow="2" inkscape:window-height="987" inkscape:window-maximized="1" inkscape:window-width="1680" inkscape:window-x="-8" inkscape:window-y="-8" inkscape:zoom="0.5" objecttolerance="10" pagecolor="#ffffff" showgrid="false">
	</sodipodi:namedview>
<desc  id="desc4">Created by EvoPdf</desc>
<g id="g22" transform="translate(-374.00488,421.48166)">
</g>
<g id="g24" transform="translate(-374.00488,421.48166)">
</g>
<g id="g26" transform="translate(-374.00488,421.48166)">
</g>
<g id="g28" transform="translate(-374.00488,421.48166)">
</g>
<g id="g30" transform="translate(-374.00488,421.48166)">
</g>
<g id="g32" transform="translate(-374.00488,421.48166)">
</g>
<g id="g34" transform="translate(-374.00488,421.48166)">
</g>
<g id="g36" transform="translate(-374.00488,421.48166)">
</g>
<g id="g38" transform="translate(-374.00488,421.48166)">
</g>
<g id="g40" transform="translate(-374.00488,421.48166)">
</g>
<g id="g42" transform="translate(-374.00488,421.48166)">
</g>
<g id="g44" transform="translate(-374.00488,421.48166)">
</g>
<g id="g46" transform="translate(-374.00488,421.48166)">
</g>
<g id="g48" transform="translate(-374.00488,421.48166)">
</g>
<g id="g50" transform="translate(-374.00488,421.48166)">
</g>
<g id="g52" transform="translate(-374.00488,421.48166)">
</g>
<g id="g54" transform="translate(-374.00488,421.48166)">
</g>
<g id="g56" transform="translate(-374.00488,421.48166)">
</g>
<g id="g58" transform="translate(-374.00488,421.48166)">
</g>
<g id="g60" transform="translate(-374.00488,421.48166)">
</g>
<g id="g62" transform="translate(-374.00488,421.48166)">
</g>
<g id="g64" transform="translate(-374.00488,421.48166)">
</g>
<g id="g66" transform="translate(-374.00488,421.48166)">
</g>
<g id="g74" transform="translate(-681.00488,561.48166)">
</g>
<g id="g76" transform="translate(170.99512,493.48166)">
</g>
<g id="g78" transform="translate(170.99512,493.48166)">
</g>
<g id="g80" transform="translate(170.99512,493.48166)">
</g>
<g id="g82" transform="matrix(0.277344,0,0,0.277344,170.99512,493.48166)">
</g>
<g id="g88" transform="matrix(0.277344,0,0,0.277344,170.99512,493.48166)">
</g>
<g id="g90" transform="matrix(0.277344,0,0,0.277344,170.99512,493.48166)">
</g>
<g id="g96" transform="matrix(0.277344,0,0,0.277344,170.99512,493.48166)">
</g>
<path class="st0" d="M256,16C123.4,16,16,123.4,16,256c0,132.6,107.4,240,240,240s240-107.4,240-240S388.6,16,256,16z M418.3,151.9
	L418.3,151.9l-135,132V448c0,3-12.8,5.3-27.4,5.5c-14-0.2-27.4-2.6-27.4-5.5V283.9l-135-132c-2.2-2.2,4.8-12.4,15.3-23.1
	c10.7-10.7,21.1-17.5,23.1-15.3l123.8,120.8l123.8-120.8c2.2-2.2,12.4,4.8,23.1,15.3C413.3,139.5,420.4,149.8,418.3,151.9z"/>
<g id="g102" transform="matrix(0.277344,0,0,0.277344,170.99512,493.48166)">
</g>
<g id="g104" transform="matrix(0.277344,0,0,0.277344,170.99512,493.48166)">
</g>
<g id="g106" transform="translate(-374.00488,421.48166)">
</g>
<g id="g108" transform="translate(-374.00488,421.48166)">
</g>
<g id="g110" transform="translate(-681.00488,561.48166)">
</g>
<g id="g112" transform="translate(170.99512,493.48166)">
</g>
<g id="g114" transform="translate(170.99512,493.48166)">
</g>
<g id="g116" transform="translate(170.99512,493.48166)">
</g>
<g id="g118" transform="matrix(0.277344,0,0,0.277344,170.99512,493.48166)">
</g>
<g id="g120" transform="translate(-374.00488,421.48166)">
</g>
<g id="g122" transform="translate(-374.00488,421.48166)">
</g>
<g id="g124" transform="translate(-681.00488,561.48166)">
</g>
<g id="g126" transform="translate(170.99512,493.48166)">
</g>
<g id="g128" transform="translate(170.99512,493.48166)">
</g>
<g id="g130" transform="translate(170.99512,493.48166)">
</g>
<g id="g132" transform="translate(-374.00488,421.48166)">
</g>
<g id="g134" transform="translate(-374.00488,421.48166)">
</g>
<g id="g136" transform="translate(-681.00488,561.48166)">
</g>
<g id="g138" transform="translate(170.99512,493.48166)">
</g>
<g id="g140" transform="translate(170.99512,493.48166)">
</g>
<g id="g142" transform="translate(-374.00488,421.48166)">
</g>
<g id="g144" transform="translate(-374.00488,421.48166)">
</g>
<g id="g146" transform="translate(-681.00488,561.48166)">
</g>
<g id="g164" transform="translate(-681.00488,561.48166)">
</g>
<g id="g166" transform="translate(-681.00488,561.48166)">
</g>
<g id="g168" transform="translate(-681.00488,561.48166)">
</g>
<g id="g174" transform="translate(-681.00488,561.48166)">
</g>
<g id="g194" transform="translate(-681.00488,561.48166)">
</g>
<g id="g200" transform="translate(-681.00488,561.48166)">
</g>
<g id="g202" transform="translate(-374.00488,421.48166)">
</g>
<g id="g204" transform="translate(-374.00488,421.48166)">
</g>
<g id="g206" transform="translate(-681.00488,561.48166)">
</g>
<g id="g208" transform="translate(-681.00488,561.48166)">
</g>
<g id="g210" transform="translate(-681.00488,561.48166)">
</g>
<g id="g216" transform="translate(177.99512,718.48166)">
</g>
<g id="g218" transform="translate(-374.00488,421.48166)">
</g>
<g id="g220" transform="translate(-374.00488,421.48166)">
</g>
<g id="g222" transform="translate(-681.00488,561.48166)">
</g>
<g id="g224" transform="translate(-681.00488,561.48166)">
</g>
<g id="g226" transform="translate(-681.00488,561.48166)">
</g>
<g id="g228" transform="translate(-374.00488,421.48166)">
</g>
<g id="g230" transform="translate(-374.00488,421.48166)">
</g>
<g id="g232" transform="translate(-681.00488,561.48166)">
</g>
<g id="g234" transform="translate(-681.00488,561.48166)">
</g>
<g id="g240" transform="translate(-681.00488,561.48166)">
</g>
<g id="g242" transform="translate(-681.00488,561.48166)">
</g>
<g id="g244" transform="translate(-374.00488,421.48166)">
</g>
<g id="g246" transform="translate(-374.00488,421.48166)">
</g>
<g id="g248" transform="translate(-681.00488,561.48166)">
</g>
<g id="g250" transform="translate(-681.00488,561.48166)">
</g>
<g id="g260" transform="translate(-358.00488,561.48166)">
</g>
<g id="g262" transform="translate(-374.00488,421.48166)">
</g>
<g id="g264" transform="translate(-374.00488,421.48166)">
</g>
<g id="g266" transform="translate(-681.00488,561.48166)">
</g>
<g id="g276" transform="translate(-374.00488,421.48166)">
</g>
<g id="g278" transform="translate(-374.00488,421.48166)">
</g>
<g id="g280" transform="translate(-374.00488,421.48166)">
</g>
<g id="g282" transform="translate(-374.00488,421.48166)">
</g>
<g id="g284" transform="translate(-374.00488,421.48166)">
</g>
<g id="g286" transform="translate(-374.00488,421.48166)">
</g>
<g id="g288" transform="translate(-374.00488,421.48166)">
</g>
<g id="g290" transform="translate(-374.00488,421.48166)">
</g>
<g id="g292" transform="translate(-374.00488,421.48166)">
</g>
<g id="g294" transform="translate(-374.00488,421.48166)">
</g>
<g id="g296" transform="translate(-374.00488,421.48166)">
</g>
<g id="g298" transform="translate(-374.00488,421.48166)">
</g>
<g id="g304" transform="translate(-287.00488,908.48166)">
</g>
<g id="g306" transform="translate(-287.00488,908.48166)">
</g>
<g id="g308" transform="matrix(0.95,0,0,0.95,-237.00488,933.48166)">
</g>
<g id="g314" transform="matrix(0.95,0,0,0.95,-237.00488,933.48166)">
</g>
<g id="g320" transform="matrix(0.95,0,0,0.95,-237.00488,933.48166)">
</g>
<g id="g326" transform="matrix(0.95,0,0,0.95,-237.00488,933.48166)">
</g>
<g id="g332" transform="matrix(0.95,0,0,0.95,-237.00488,933.48166)">
</g>
<g id="g338" transform="matrix(0.95,0,0,0.95,-237.00488,933.48166)">
</g>
<g id="g344" transform="matrix(0.95,0,0,0.95,-237.00488,933.48166)">
</g>
<g id="g350" transform="matrix(0.95,0,0,0.95,-237.00488,933.48166)">
</g>
<g id="g356" transform="matrix(0.95,0,0,0.95,-237.00488,933.48166)">
</g>
<g id="g358" transform="matrix(0.95,0,0,0.95,-237.00488,933.48166)">
</g>
<g id="g360" transform="translate(-374.00488,421.48166)">
</g>
<g id="g362" transform="translate(-374.00488,421.48166)">
</g>
<g id="g364" transform="translate(-374.00488,421.48166)">
</g>
<g id="g366" transform="translate(-287.00488,908.48166)">
</g>
<g id="g368" transform="translate(-287.00488,908.48166)">
</g>
<g id="g370" transform="matrix(0.95,0,0,0.95,-237.00488,933.48166)">
</g>
<g id="g372" transform="translate(-374.00488,421.48166)">
</g>
<g id="g374" transform="translate(-374.00488,421.48166)">
</g>
<g id="g376" transform="translate(-374.00488,421.48166)">
</g>
<g id="g378" transform="translate(-287.00488,908.48166)">
</g>
<g id="g384" transform="translate(-374.00488,421.48166)">
</g>
<g id="g386" transform="translate(-374.00488,421.48166)">
</g>
<g id="g388" transform="translate(-374.00488,421.48166)">
</g>
<g id="g390" transform="translate(-374.00488,421.48166)">
</g>
<g id="g392" transform="translate(-374.00488,421.48166)">
</g>
<g id="g394" transform="translate(-374.00488,421.48166)">
</g>
<g id="g400" transform="translate(-149.00488,908.48166)">
</g>
<g id="g402" transform="translate(-149.00488,908.48166)">
</g>
<g id="g404" transform="matrix(1.17527,0,0,1.17527,-59.004875,933.67766)">
</g>
<g id="g410" transform="matrix(1.17527,0,0,1.17527,-59.004875,933.67766)">
</g>
<g id="g412" transform="matrix(1.17527,0,0,1.17527,-59.004875,933.67766)">
</g>
<g id="g414" transform="translate(-374.00488,421.48166)">
</g>
<g id="g416" transform="translate(-374.00488,421.48166)">
</g>
<g id="g418" transform="translate(-374.00488,421.48166)">
</g>
<g id="g420" transform="translate(-149.00488,908.48166)">
</g>
<g id="g422" transform="translate(-149.00488,908.48166)">
</g>
<g id="g424" transform="matrix(1.17527,0,0,1.17527,-59.004875,933.67766)">
</g>
<g id="g426" transform="translate(-374.00488,421.48166)">
</g>
<g id="g428" transform="translate(-374.00488,421.48166)">
</g>
<g id="g430" transform="translate(-374.00488,421.48166)">
</g>
<g id="g432" transform="translate(-149.00488,908.48166)">
</g>
<g id="g438" transform="translate(-374.00488,421.48166)">
</g>
<g id="g440" transform="translate(-374.00488,421.48166)">
</g>
<g id="g442" transform="translate(-374.00488,421.48166)">
</g>
<g id="g444" transform="translate(-374.00488,421.48166)">
</g>
<g id="g446" transform="translate(-374.00488,421.48166)">
</g>
<g id="g448" transform="translate(-374.00488,421.48166)">
</g>
<g id="g454" transform="translate(28.995125,908.48166)">
</g>
<g id="g456" transform="translate(28.995125,908.48166)">
</g>
<g id="g458" transform="matrix(0.95,0,0,0.95,118.99512,933.48166)">
</g>
<g id="g464" transform="matrix(0.95,0,0,0.95,118.99512,933.48166)">
</g>
<g id="g466" transform="matrix(0.95,0,0,0.95,118.99512,933.48166)">
</g>
<g id="g468" transform="translate(-374.00488,421.48166)">
</g>
<g id="g470" transform="translate(-374.00488,421.48166)">
</g>
<g id="g472" transform="translate(-374.00488,421.48166)">
</g>
<g id="g474" transform="translate(28.995125,908.48166)">
</g>
<g id="g476" transform="translate(28.995125,908.48166)">
</g>
<g id="g478" transform="matrix(0.95,0,0,0.95,118.99512,933.48166)">
</g>
<g id="g480" transform="translate(-374.00488,421.48166)">
</g>
<g id="g482" transform="translate(-374.00488,421.48166)">
</g>
<g id="g484" transform="translate(-374.00488,421.48166)">
</g>
<g id="g486" transform="translate(28.995125,908.48166)">
</g>
<g id="g492" transform="translate(-374.00488,421.48166)">
</g>
<g id="g494" transform="translate(-374.00488,421.48166)">
</g>
<g id="g496" transform="translate(-374.00488,421.48166)">
</g>
<g id="g498" transform="translate(-374.00488,421.48166)">
</g>
<g id="g500" transform="translate(-374.00488,421.48166)">
</g>
<g id="g502" transform="translate(-374.00488,421.48166)">
</g>
<g id="g508" transform="translate(206.99512,908.48166)">
</g>
<g id="g510" transform="translate(206.99512,908.48166)">
</g>
<g id="g512" transform="matrix(0.936353,0,0,0.936353,296.99512,937.49966)">
</g>
<g id="g518" transform="matrix(0.936353,0,0,0.936353,296.99512,937.49966)">
</g>
<g id="g520" transform="matrix(0.936353,0,0,0.936353,296.99512,937.49966)">
</g>
<g id="g522" transform="translate(-374.00488,421.48166)">
</g>
<g id="g524" transform="translate(-374.00488,421.48166)">
</g>
<g id="g526" transform="translate(-374.00488,421.48166)">
</g>
<g id="g528" transform="translate(206.99512,908.48166)">
</g>
<g id="g530" transform="translate(206.99512,908.48166)">
</g>
<g id="g532" transform="matrix(0.936353,0,0,0.936353,296.99512,937.49966)">
</g>
<g id="g534" transform="translate(-374.00488,421.48166)">
</g>
<g id="g536" transform="translate(-374.00488,421.48166)">
</g>
<g id="g538" transform="translate(-374.00488,421.48166)">
</g>
<g id="g540" transform="translate(206.99512,908.48166)">
</g>
<g id="g546" transform="translate(-374.00488,421.48166)">
</g>
<g id="g548" transform="translate(-374.00488,421.48166)">
</g>
<g id="g550" transform="translate(-374.00488,421.48166)">
</g>
<g id="g552" transform="translate(-374.00488,421.48166)">
</g>
<g id="g554" transform="translate(-374.00488,421.48166)">
</g>
<g id="g556" transform="translate(-374.00488,421.48166)">
</g>
<g id="g562" transform="translate(384.99512,908.48166)">
</g>
<g id="g564" transform="translate(384.99512,908.48166)">
</g>
<g id="g566" transform="matrix(1.1875,0,0,1.1875,475.34212,933.48166)">
</g>
<g id="g572" transform="matrix(1.1875,0,0,1.1875,475.34212,933.48166)">
</g>
<g id="g574" transform="matrix(1.1875,0,0,1.1875,475.34212,933.48166)">
</g>
<g id="g576" transform="translate(-374.00488,421.48166)">
</g>
<g id="g578" transform="translate(-374.00488,421.48166)">
</g>
<g id="g580" transform="translate(-374.00488,421.48166)">
</g>
<g id="g582" transform="translate(384.99512,908.48166)">
</g>
<g id="g584" transform="translate(384.99512,908.48166)">
</g>
<g id="g586" transform="matrix(1.1875,0,0,1.1875,475.34212,933.48166)">
</g>
<g id="g588" transform="translate(-374.00488,421.48166)">
</g>
<g id="g590" transform="translate(-374.00488,421.48166)">
</g>
<g id="g592" transform="translate(-374.00488,421.48166)">
</g>
<g id="g594" transform="translate(384.99512,908.48166)">
</g>
<g id="g600" transform="translate(-374.00488,421.48166)">
</g>
<g id="g602" transform="translate(-374.00488,421.48166)">
</g>
<g id="g604" transform="translate(-374.00488,421.48166)">
</g>
<g id="g606" transform="translate(-374.00488,421.48166)">
</g>
<g id="g608" transform="translate(-374.00488,421.48166)">
</g>
<g id="g610" transform="translate(-374.00488,421.48166)">
</g>
<g id="g616" transform="translate(-374.00488,421.48166)">
</g>
<g id="g618" transform="translate(-374.00488,421.48166)">
</g>
<g id="g620" transform="translate(-374.00488,421.48166)">
</g>
<g id="g622" transform="translate(-374.00488,421.48166)">
</g>
<g id="g624" transform="translate(-374.00488,421.48166)">
</g>
<g id="g626" transform="translate(-374.00488,421.48166)">
</g>
<g id="g632" transform="translate(-374.00488,421.48166)">
</g>
<g id="g634" transform="translate(-374.00488,421.48166)">
</g>
<g id="g636" transform="translate(-374.00488,421.48166)">
</g>
<g id="g638" transform="translate(-374.00488,421.48166)">
</g>
<g id="g640" transform="translate(-374.00488,421.48166)">
</g>
<g id="g642" transform="translate(-374.00488,421.48166)">
</g>
<g id="g644" transform="translate(-374.00488,421.48166)">
</g>
<g id="g646" transform="translate(-374.00488,421.48166)">
</g>
<g id="g648" transform="translate(-374.00488,421.48166)">
</g>
<g id="g650" transform="translate(-374.00488,421.48166)">
</g>
<g id="g652" transform="translate(-374.00488,421.48166)">
</g>
<g id="g654" transform="translate(-374.00488,421.48166)">
</g>
<g id="g656" transform="translate(-374.00488,421.48166)">
</g>
<g id="g658" transform="translate(-374.00488,421.48166)">
</g>
<g id="g660" transform="translate(-374.00488,421.48166)">
</g>
<g id="g662" transform="translate(-374.00488,421.48166)">
</g>
<g id="g664" transform="translate(-374.00488,421.48166)">
</g>
<g id="g666" transform="translate(-374.00488,421.48166)">
</g>
<g id="g668" transform="translate(-374.00488,421.48166)">
</g>
<g id="g670" transform="translate(-374.00488,421.48166)">
</g>
<g id="g672" transform="translate(-374.00488,421.48166)">
</g>
<g id="g674" transform="translate(-374.00488,421.48166)">
</g>
<g id="g676" transform="translate(-374.00488,421.48166)">
</g>
<g id="g678" transform="translate(-374.00488,421.48166)">
</g>
<g id="g680" transform="translate(-374.00488,421.48166)">
</g>
<g id="g682" transform="translate(-374.00488,421.48166)">
</g>
<g id="g684" transform="translate(-374.00488,421.48166)">
</g>
<g id="g686" transform="translate(-374.00488,421.48166)">
</g>
<g id="g688" transform="translate(-374.00488,421.48166)">
</g>
<g id="g690" transform="translate(-374.00488,421.48166)">
</g>
<g id="g692" transform="translate(-374.00488,421.48166)">
</g>
<g id="g694" transform="translate(-374.00488,421.48166)">
</g>
<g id="g696" transform="translate(-374.00488,421.48166)">
</g>
<g id="g698" transform="translate(-374.00488,421.48166)">
</g>
<g id="g700" transform="translate(-374.00488,421.48166)">
</g>
<g id="g702" transform="translate(-374.00488,421.48166)">
</g>
<g id="g704" transform="translate(-374.00488,421.48166)">
</g>
<g id="g706" transform="translate(-374.00488,421.48166)">
</g>
<g id="g708" transform="translate(-374.00488,421.48166)">
</g>
<g id="g710" transform="translate(-374.00488,421.48166)">
</g>
<g id="g712" transform="translate(-374.00488,421.48166)">
</g>
<g id="g714" transform="translate(-374.00488,421.48166)">
</g>
<g id="g716" transform="translate(-374.00488,421.48166)">
</g>
<g id="g718" transform="translate(-374.00488,421.48166)">
</g>
<g id="g720" transform="translate(-374.00488,421.48166)">
</g>
<g id="g722" transform="translate(-374.00488,421.48166)">
</g>
<g id="g724" transform="translate(-374.00488,421.48166)">
</g>
<g id="g726" transform="translate(-374.00488,421.48166)">
</g>
<g id="g728" transform="translate(-374.00488,421.48166)">
</g>
<g id="g730" transform="translate(-374.00488,421.48166)">
</g>
<g id="g732" transform="translate(-374.00488,421.48166)">
</g>
<g id="g734" transform="translate(-374.00488,421.48166)">
</g>
<g id="g736" transform="translate(-374.00488,421.48166)">
</g>
<g id="g738" transform="translate(-374.00488,421.48166)">
</g>
<g id="g740" transform="translate(-374.00488,421.48166)">
</g>
<g id="g742" transform="translate(-374.00488,421.48166)">
</g>
<g id="g744" transform="translate(-374.00488,421.48166)">
</g>
<g id="g746" transform="translate(-374.00488,421.48166)">
</g>
<g id="g748" transform="translate(-374.00488,421.48166)">
</g>
<g id="g750" transform="translate(-374.00488,421.48166)">
</g>
<g id="g752" transform="translate(-374.00488,421.48166)">
</g>
<g id="g758" transform="translate(-374.00488,421.48166)">
</g>
<g id="g760" transform="translate(-374.00488,421.48166)">
</g>
<g id="g762" transform="translate(-374.00488,421.48166)">
</g>
<g id="g764" transform="translate(-374.00488,421.48166)">
</g>
<g id="g766" transform="translate(-374.00488,421.48166)">
</g>
<g id="g768" transform="translate(-374.00488,421.48166)">
</g>
<g id="g770" transform="translate(-374.00488,421.48166)">
</g>
<g id="g772" transform="translate(-338.00488,1041.4817)">
</g>
<g id="g774" transform="translate(-338.00488,1041.4817)">
</g>
<g id="g776" transform="translate(-338.00488,1041.4817)">
</g>
<g id="g778" transform="matrix(0.75,0,0,0.75,-338.00488,1041.4817)">
</g>
<g id="g784" transform="matrix(0.75,0,0,0.75,-338.00488,1041.4817)">
</g>
<g id="g786" transform="matrix(0.75,0,0,0.75,-338.00488,1041.4817)">
</g>
<g id="g788" transform="translate(-374.00488,421.48166)">
</g>
<g id="g790" transform="translate(-374.00488,421.48166)">
</g>
<g id="g792" transform="translate(-374.00488,421.48166)">
</g>
<g id="g794" transform="translate(-374.00488,421.48166)">
</g>
<g id="g796" transform="translate(-374.00488,421.48166)">
</g>
<g id="g798" transform="translate(-338.00488,1041.4817)">
</g>
<g id="g800" transform="translate(-338.00488,1041.4817)">
</g>
<g id="g802" transform="translate(-338.00488,1041.4817)">
</g>
<g id="g804" transform="matrix(0.75,0,0,0.75,-338.00488,1041.4817)">
</g>
<g id="g806" transform="translate(-374.00488,421.48166)">
</g>
<g id="g808" transform="translate(-374.00488,421.48166)">
</g>
<g id="g810" transform="translate(-374.00488,421.48166)">
</g>
<g id="g812" transform="translate(-374.00488,421.48166)">
</g>
<g id="g814" transform="translate(-374.00488,421.48166)">
</g>
<g id="g816" transform="translate(-338.00488,1041.4817)">
</g>
<g id="g818" transform="translate(-338.00488,1041.4817)">
</g>
<g id="g820" transform="translate(-338.00488,1041.4817)">
</g>
<g id="g822" transform="translate(-374.00488,421.48166)">
</g>
<g id="g824" transform="translate(-374.00488,421.48166)">
</g>
<g id="g826" transform="translate(-374.00488,421.48166)">
</g>
<g id="g828" transform="translate(-374.00488,421.48166)">
</g>
<g id="g830" transform="translate(-374.00488,421.48166)">
</g>
<g id="g832" transform="translate(-338.00488,1041.4817)">
</g>
<g id="g834" transform="translate(-338.00488,1041.4817)">
</g>
<g id="g836" transform="translate(-374.00488,421.48166)">
</g>
<g id="g838" transform="translate(-374.00488,421.48166)">
</g>
<g id="g840" transform="translate(-374.00488,421.48166)">
</g>
<g id="g842" transform="translate(-374.00488,421.48166)">
</g>
<g id="g844" transform="translate(-374.00488,421.48166)">
</g>
<g id="g846" transform="translate(-374.00488,421.48166)">
</g>
<g id="g848" transform="translate(-374.00488,421.48166)">
</g>
<g id="g850" transform="translate(-374.00488,421.48166)">
</g>
<g id="g852" transform="translate(-374.00488,421.48166)">
</g>
<g id="g854" transform="translate(-374.00488,421.48166)">
</g>
<g id="g856" transform="translate(-374.00488,421.48166)">
</g>
<g id="g858" transform="translate(-374.00488,421.48166)">
</g>
<g id="g860" transform="translate(-374.00488,421.48166)">
</g>
<g id="g862" transform="translate(-374.00488,421.48166)">
</g>
<g id="g864" transform="translate(-374.00488,421.48166)">
</g>
<g id="g870" transform="translate(-374.00488,421.48166)">
</g>
<g id="g872" transform="translate(-374.00488,421.48166)">
</g>
<g id="g874" transform="translate(-374.00488,421.48166)">
</g>
<g id="g876" transform="translate(-374.00488,421.48166)">
</g>
<g id="g878" transform="translate(-374.00488,421.48166)">
</g>
<g id="g880" transform="translate(-374.00488,421.48166)">
</g>
<g id="g882" transform="translate(-374.00488,421.48166)">
</g>
<g id="g884" transform="translate(-316.00488,1041.4817)">
</g>
<g id="g886" transform="translate(-316.00488,1041.4817)">
</g>
<g id="g888" transform="translate(-316.00488,1041.4817)">
</g>
<g id="g890" transform="matrix(0.75,0,0,0.75,-316.00488,1041.4817)">
</g>
<g id="g896" transform="matrix(0.75,0,0,0.75,-316.00488,1041.4817)">
</g>
<g id="g898" transform="matrix(0.75,0,0,0.75,-316.00488,1041.4817)">
</g>
<g id="g900" transform="translate(-374.00488,421.48166)">
</g>
<g id="g902" transform="translate(-374.00488,421.48166)">
</g>
<g id="g904" transform="translate(-374.00488,421.48166)">
</g>
<g id="g906" transform="translate(-374.00488,421.48166)">
</g>
<g id="g908" transform="translate(-374.00488,421.48166)">
</g>
<g id="g910" transform="translate(-316.00488,1041.4817)">
</g>
<g id="g912" transform="translate(-316.00488,1041.4817)">
</g>
<g id="g914" transform="translate(-316.00488,1041.4817)">
</g>
<g id="g916" transform="matrix(0.75,0,0,0.75,-316.00488,1041.4817)">
</g>
<g id="g918" transform="translate(-374.00488,421.48166)">
</g>
<g id="g920" transform="translate(-374.00488,421.48166)">
</g>
<g id="g922" transform="translate(-374.00488,421.48166)">
</g>
<g id="g924" transform="translate(-374.00488,421.48166)">
</g>
<g id="g926" transform="translate(-374.00488,421.48166)">
</g>
<g id="g928" transform="translate(-316.00488,1041.4817)">
</g>
<g id="g930" transform="translate(-316.00488,1041.4817)">
</g>
<g id="g932" transform="translate(-316.00488,1041.4817)">
</g>
<g id="g934" transform="translate(-374.00488,421.48166)">
</g>
<g id="g936" transform="translate(-374.00488,421.48166)">
</g>
<g id="g938" transform="translate(-374.00488,421.48166)">
</g>
<g id="g940" transform="translate(-374.00488,421.48166)">
</g>
<g id="g942" transform="translate(-374.00488,421.48166)">
</g>
<g id="g944" transform="translate(-316.00488,1041.4817)">
</g>
<g id="g946" transform="translate(-316.00488,1041.4817)">
</g>
<g id="g948" transform="translate(-374.00488,421.48166)">
</g>
<g id="g950" transform="translate(-374.00488,421.48166)">
</g>
<g id="g952" transform="translate(-374.00488,421.48166)">
</g>
<g id="g954" transform="translate(-374.00488,421.48166)">
</g>
<g id="g956" transform="translate(-374.00488,421.48166)">
</g>
<g id="g958" transform="translate(-374.00488,421.48166)">
</g>
<g id="g960" transform="translate(-374.00488,421.48166)">
</g>
<g id="g962" transform="translate(-374.00488,421.48166)">
</g>
<g id="g964" transform="translate(-374.00488,421.48166)">
</g>
<g id="g966" transform="translate(-374.00488,421.48166)">
</g>
<g id="g968" transform="translate(-374.00488,421.48166)">
</g>
<g id="g970" transform="translate(-374.00488,421.48166)">
</g>
<g id="g972" transform="translate(-374.00488,421.48166)">
</g>
<g id="g974" transform="translate(-374.00488,421.48166)">
</g>
<g id="g976" transform="translate(-374.00488,421.48166)">
</g>
<g id="g982" transform="translate(-374.00488,421.48166)">
</g>
<g id="g984" transform="translate(-374.00488,421.48166)">
</g>
<g id="g986" transform="translate(-374.00488,421.48166)">
</g>
<g id="g988" transform="translate(-374.00488,421.48166)">
</g>
<g id="g990" transform="translate(-374.00488,421.48166)">
</g>
<g id="g992" transform="translate(-374.00488,421.48166)">
</g>
<g id="g994" transform="translate(-374.00488,421.48166)">
</g>
<g id="g996" transform="translate(-294.00488,1041.4817)">
</g>
<g id="g998" transform="translate(-294.00488,1041.4817)">
</g>
<g id="g1000" transform="translate(-294.00488,1041.4817)">
</g>
<g id="g1002" transform="matrix(0.75,0,0,0.75,-294.00488,1041.4817)">
</g>
<g id="g1008" transform="matrix(0.75,0,0,0.75,-294.00488,1041.4817)">
</g>
<g id="g1010" transform="matrix(0.75,0,0,0.75,-294.00488,1041.4817)">
</g>
<g id="g1012" transform="translate(-374.00488,421.48166)">
</g>
<g id="g1014" transform="translate(-374.00488,421.48166)">
</g>
<g id="g1016" transform="translate(-374.00488,421.48166)">
</g>
<g id="g1018" transform="translate(-374.00488,421.48166)">
</g>
<g id="g1020" transform="translate(-374.00488,421.48166)">
</g>
<g id="g1022" transform="translate(-294.00488,1041.4817)">
</g>
<g id="g1024" transform="translate(-294.00488,1041.4817)">
</g>
<g id="g1026" transform="translate(-294.00488,1041.4817)">
</g>
<g id="g1028" transform="matrix(0.75,0,0,0.75,-294.00488,1041.4817)">
</g>
<g id="g1030" transform="translate(-374.00488,421.48166)">
</g>
<g id="g1032" transform="translate(-374.00488,421.48166)">
</g>
<g id="g1034" transform="translate(-374.00488,421.48166)">
</g>
<g id="g1036" transform="translate(-374.00488,421.48166)">
</g>
<g id="g1038" transform="translate(-374.00488,421.48166)">
</g>
<g id="g1040" transform="translate(-294.00488,1041.4817)">
</g>
<g id="g1042" transform="translate(-294.00488,1041.4817)">
</g>
<g id="g1044" transform="translate(-294.00488,1041.4817)">
</g>
<g id="g1046" transform="translate(-374.00488,421.48166)">
</g>
<g id="g1048" transform="translate(-374.00488,421.48166)">
</g>
<g id="g1050" transform="translate(-374.00488,421.48166)">
</g>
<g id="g1052" transform="translate(-374.00488,421.48166)">
</g>
<g id="g1054" transform="translate(-374.00488,421.48166)">
</g>
<g id="g1056" transform="translate(-294.00488,1041.4817)">
</g>
<g id="g1058" transform="translate(-294.00488,1041.4817)">
</g>
<g id="g1060" transform="translate(-374.00488,421.48166)">
</g>
<g id="g1062" transform="translate(-374.00488,421.48166)">
</g>
<g id="g1064" transform="translate(-374.00488,421.48166)">
</g>
<g id="g1066" transform="translate(-374.00488,421.48166)">
</g>
<g id="g1068" transform="translate(-374.00488,421.48166)">
</g>
<g id="g1070" transform="translate(-374.00488,421.48166)">
</g>
<g id="g1072" transform="translate(-374.00488,421.48166)">
</g>
<g id="g1074" transform="translate(-374.00488,421.48166)">
</g>
<g id="g1076" transform="translate(-374.00488,421.48166)">
</g>
<g id="g1078" transform="translate(-374.00488,421.48166)">
</g>
<g id="g1080" transform="translate(-374.00488,421.48166)">
</g>
<g id="g1082" transform="translate(-374.00488,421.48166)">
</g>
<g id="g1084" transform="translate(-374.00488,421.48166)">
</g>
<g id="g1086" transform="translate(-374.00488,421.48166)">
</g>
<g id="g1088" transform="translate(-374.00488,421.48166)">
</g>
<g id="g1094" transform="translate(-374.00488,421.48166)">
</g>
<g id="g1096" transform="translate(-374.00488,421.48166)">
</g>
<g id="g1098" transform="translate(-374.00488,421.48166)">
</g>
<g id="g1100" transform="translate(-374.00488,421.48166)">
</g>
<g id="g1102" transform="translate(-374.00488,421.48166)">
</g>
<g id="g1104" transform="translate(-374.00488,421.48166)">
</g>
<g id="g1106" transform="translate(-374.00488,421.48166)">
</g>
<g id="g1108" transform="translate(-272.00488,1041.4817)">
</g>
<g id="g1110" transform="translate(-272.00488,1041.4817)">
</g>
<g id="g1112" transform="translate(-272.00488,1041.4817)">
</g>
<g id="g1114" transform="matrix(0.75,0,0,0.75,-272.00488,1041.4817)">
</g>
<g id="g1120" transform="matrix(0.75,0,0,0.75,-272.00488,1041.4817)">
</g>
<g id="g1122" transform="matrix(0.75,0,0,0.75,-272.00488,1041.4817)">
</g>
<g id="g1124" transform="matrix(0.75,0,0,0.75,-272.00488,1041.4817)">
</g>
<g id="g1126" transform="translate(-374.00488,421.48166)">
</g>
<g id="g1128" transform="translate(-374.00488,421.48166)">
</g>
<g id="g1130" transform="translate(-374.00488,421.48166)">
</g>
<g id="g1132" transform="translate(-374.00488,421.48166)">
</g>
<g id="g1134" transform="translate(-374.00488,421.48166)">
</g>
<g id="g1136" transform="translate(-272.00488,1041.4817)">
</g>
<g id="g1138" transform="translate(-272.00488,1041.4817)">
</g>
<g id="g1140" transform="translate(-272.00488,1041.4817)">
</g>
<g id="g1142" transform="matrix(0.75,0,0,0.75,-272.00488,1041.4817)">
</g>
<g id="g1144" transform="matrix(0.75,0,0,0.75,-272.00488,1041.4817)">
</g>
<g id="g1146" transform="matrix(0.75,0,0,0.75,-272.00488,1041.4817)">
</g>
<g id="g1148" transform="translate(-374.00488,421.48166)">
</g>
<g id="g1150" transform="translate(-374.00488,421.48166)">
</g>
<g id="g1152" transform="translate(-374.00488,421.48166)">
</g>
<g id="g1154" transform="translate(-374.00488,421.48166)">
</g>
<g id="g1156" transform="translate(-374.00488,421.48166)">
</g>
<g id="g1158" transform="translate(-272.00488,1041.4817)">
</g>
<g id="g1160" transform="translate(-272.00488,1041.4817)">
</g>
<g id="g1162" transform="translate(-272.00488,1041.4817)">
</g>
<g id="g1164" transform="translate(-374.00488,421.48166)">
</g>
<g id="g1166" transform="translate(-374.00488,421.48166)">
</g>
<g id="g1168" transform="translate(-374.00488,421.48166)">
</g>
<g id="g1170" transform="translate(-374.00488,421.48166)">
</g>
<g id="g1172" transform="translate(-374.00488,421.48166)">
</g>
<g id="g1174" transform="translate(-272.00488,1041.4817)">
</g>
<g id="g1176" transform="translate(-272.00488,1041.4817)">
</g>
<g id="g1178" transform="translate(-374.00488,421.48166)">
</g>
<g id="g1180" transform="translate(-374.00488,421.48166)">
</g>
<g id="g1182" transform="translate(-374.00488,421.48166)">
</g>
<g id="g1184" transform="translate(-374.00488,421.48166)">
</g>
<g id="g1186" transform="translate(-374.00488,421.48166)">
</g>
<g id="g1188" transform="translate(-374.00488,421.48166)">
</g>
<g id="g1190" transform="translate(-374.00488,421.48166)">
</g>
<g id="g1192" transform="translate(-374.00488,421.48166)">
</g>
<g id="g1194" transform="translate(-374.00488,421.48166)">
</g>
<g id="g1196" transform="translate(-374.00488,421.48166)">
</g>
<g id="g1198" transform="translate(-374.00488,421.48166)">
</g>
<g id="g1200" transform="translate(-374.00488,421.48166)">
</g>
<g id="g1202" transform="translate(-374.00488,421.48166)">
</g>
<g id="g1204" transform="translate(-374.00488,421.48166)">
</g>
<g id="g1206" transform="translate(-374.00488,421.48166)">
</g>
<g id="g1212" transform="translate(-374.00488,421.48166)">
</g>
<g id="g1214" transform="translate(-374.00488,421.48166)">
</g>
<g id="g1216" transform="translate(-374.00488,421.48166)">
</g>
<g id="g1218" transform="translate(-374.00488,421.48166)">
</g>
<g id="g1220" transform="translate(-374.00488,421.48166)">
</g>
<g id="g1222" transform="translate(-374.00488,421.48166)">
</g>
<g id="g1224" transform="translate(-374.00488,421.48166)">
</g>
<g id="g1226" transform="translate(-250.00488,1041.4817)">
</g>
<g id="g1228" transform="translate(-250.00488,1041.4817)">
</g>
<g id="g1230" transform="translate(-250.00488,1041.4817)">
</g>
<g id="g1232" transform="matrix(0.75,0,0,0.75,-250.00488,1041.4817)">
</g>
<g id="g1238" transform="matrix(0.75,0,0,0.75,-250.00488,1041.4817)">
</g>
<g id="g1240" transform="matrix(0.75,0,0,0.75,-250.00488,1041.4817)">
</g>
<g id="g1242" transform="translate(-374.00488,421.48166)">
</g>
<g id="g1244" transform="translate(-374.00488,421.48166)">
</g>
<g id="g1246" transform="translate(-374.00488,421.48166)">
</g>
<g id="g1248" transform="translate(-374.00488,421.48166)">
</g>
<g id="g1250" transform="translate(-374.00488,421.48166)">
</g>
<g id="g1252" transform="translate(-250.00488,1041.4817)">
</g>
<g id="g1254" transform="translate(-250.00488,1041.4817)">
</g>
<g id="g1256" transform="translate(-250.00488,1041.4817)">
</g>
<g id="g1258" transform="matrix(0.75,0,0,0.75,-250.00488,1041.4817)">
</g>
<g id="g1260" transform="translate(-374.00488,421.48166)">
</g>
<g id="g1262" transform="translate(-374.00488,421.48166)">
</g>
<g id="g1264" transform="translate(-374.00488,421.48166)">
</g>
<g id="g1266" transform="translate(-374.00488,421.48166)">
</g>
<g id="g1268" transform="translate(-374.00488,421.48166)">
</g>
<g id="g1270" transform="translate(-250.00488,1041.4817)">
</g>
<g id="g1272" transform="translate(-250.00488,1041.4817)">
</g>
<g id="g1274" transform="translate(-250.00488,1041.4817)">
</g>
<g id="g1276" transform="translate(-374.00488,421.48166)">
</g>
<g id="g1278" transform="translate(-374.00488,421.48166)">
</g>
<g id="g1280" transform="translate(-374.00488,421.48166)">
</g>
<g id="g1282" transform="translate(-374.00488,421.48166)">
</g>
<g id="g1284" transform="translate(-374.00488,421.48166)">
</g>
<g id="g1286" transform="translate(-250.00488,1041.4817)">
</g>
<g id="g1288" transform="translate(-250.00488,1041.4817)">
</g>
<g id="g1290" transform="translate(-374.00488,421.48166)">
</g>
<g id="g1292" transform="translate(-374.00488,421.48166)">
</g>
<g id="g1294" transform="translate(-374.00488,421.48166)">
</g>
<g id="g1296" transform="translate(-374.00488,421.48166)">
</g>
<g id="g1298" transform="translate(-374.00488,421.48166)">
</g>
<g id="g1300" transform="translate(-374.00488,421.48166)">
</g>
<g id="g1302" transform="translate(-374.00488,421.48166)">
</g>
<g id="g1304" transform="translate(-374.00488,421.48166)">
</g>
<g id="g1306" transform="translate(-374.00488,421.48166)">
</g>
<g id="g1308" transform="translate(-374.00488,421.48166)">
</g>
<g id="g1310" transform="translate(-374.00488,421.48166)">
</g>
<g id="g1312" transform="translate(-374.00488,421.48166)">
</g>
<g id="g1314" transform="translate(-374.00488,421.48166)">
</g>
<g id="g1316" transform="translate(-374.00488,421.48166)">
</g>
<g id="g1318" transform="translate(-374.00488,421.48166)">
</g>
<g id="g1324" transform="translate(-374.00488,421.48166)">
</g>
<g id="g1326" transform="translate(-374.00488,421.48166)">
</g>
<g id="g1328" transform="translate(-374.00488,421.48166)">
</g>
<g id="g1330" transform="translate(-374.00488,421.48166)">
</g>
<g id="g1332" transform="translate(-374.00488,421.48166)">
</g>
<g id="g1334" transform="translate(-374.00488,421.48166)">
</g>
<g id="g1336" transform="translate(-374.00488,421.48166)">
</g>
<g id="g1338" transform="translate(-228.00488,1041.4817)">
</g>
<g id="g1340" transform="translate(-228.00488,1041.4817)">
</g>
<g id="g1342" transform="translate(-228.00488,1041.4817)">
</g>
<g id="g1344" transform="matrix(0.75,0,0,0.75,-228.00488,1041.4817)">
</g>
<g id="g1350" transform="matrix(0.75,0,0,0.75,-228.00488,1041.4817)">
</g>
<g id="g1352" transform="matrix(0.75,0,0,0.75,-228.00488,1041.4817)">
</g>
<g id="g1354" transform="translate(-374.00488,421.48166)">
</g>
<g id="g1356" transform="translate(-374.00488,421.48166)">
</g>
<g id="g1358" transform="translate(-374.00488,421.48166)">
</g>
<g id="g1360" transform="translate(-374.00488,421.48166)">
</g>
<g id="g1362" transform="translate(-374.00488,421.48166)">
</g>
<g id="g1364" transform="translate(-228.00488,1041.4817)">
</g>
<g id="g1366" transform="translate(-228.00488,1041.4817)">
</g>
<g id="g1368" transform="translate(-228.00488,1041.4817)">
</g>
<g id="g1370" transform="matrix(0.75,0,0,0.75,-228.00488,1041.4817)">
</g>
<g id="g1372" transform="translate(-374.00488,421.48166)">
</g>
<g id="g1374" transform="translate(-374.00488,421.48166)">
</g>
<g id="g1376" transform="translate(-374.00488,421.48166)">
</g>
<g id="g1378" transform="translate(-374.00488,421.48166)">
</g>
<g id="g1380" transform="translate(-374.00488,421.48166)">
</g>
<g id="g1382" transform="translate(-228.00488,1041.4817)">
</g>
<g id="g1384" transform="translate(-228.00488,1041.4817)">
</g>
<g id="g1386" transform="translate(-228.00488,1041.4817)">
</g>
<g id="g1388" transform="translate(-374.00488,421.48166)">
</g>
<g id="g1390" transform="translate(-374.00488,421.48166)">
</g>
<g id="g1392" transform="translate(-374.00488,421.48166)">
</g>
<g id="g1394" transform="translate(-374.00488,421.48166)">
</g>
<g id="g1396" transform="translate(-374.00488,421.48166)">
</g>
<g id="g1398" transform="translate(-228.00488,1041.4817)">
</g>
<g id="g1400" transform="translate(-228.00488,1041.4817)">
</g>
<g id="g1402" transform="translate(-374.00488,421.48166)">
</g>
<g id="g1404" transform="translate(-374.00488,421.48166)">
</g>
<g id="g1406" transform="translate(-374.00488,421.48166)">
</g>
<g id="g1408" transform="translate(-374.00488,421.48166)">
</g>
<g id="g1410" transform="translate(-374.00488,421.48166)">
</g>
<g id="g1412" transform="translate(-374.00488,421.48166)">
</g>
<g id="g1414" transform="translate(-374.00488,421.48166)">
</g>
<g id="g1416" transform="translate(-374.00488,421.48166)">
</g>
<g id="g1418" transform="translate(-374.00488,421.48166)">
</g>
<g id="g1420" transform="translate(-374.00488,421.48166)">
</g>
<g id="g1422" transform="translate(-374.00488,421.48166)">
</g>
<g id="g1424" transform="translate(-374.00488,421.48166)">
</g>
<g id="g1426" transform="translate(-374.00488,421.48166)">
</g>
<g id="g1428" transform="translate(-374.00488,421.48166)">
</g>
<g id="g1430" transform="translate(-374.00488,421.48166)">
</g>
<g id="g1432" transform="translate(-374.00488,421.48166)">
</g>
<g id="g1434" transform="translate(-374.00488,421.48166)">
</g>
<g id="g1436" transform="translate(-374.00488,421.48166)">
</g>
<g id="g1438" transform="translate(-374.00488,421.48166)">
</g>
<g id="g1440" transform="translate(-374.00488,421.48166)">
</g>
<g id="g1474" transform="translate(-374.00488,421.48166)">
</g>
<g id="g1486" transform="translate(-374.00488,421.48166)">
</g>
<g id="g1488" transform="translate(-374.00488,421.48166)">
</g>
<g id="g1490" transform="translate(-374.00488,421.48166)">
</g>
<g id="g1492" transform="translate(-374.00488,421.48166)">
</g>
<g id="g1494" transform="translate(-374.00488,421.48166)">
</g>
<g id="g1496" transform="translate(-374.00488,421.48166)">
</g>
<g id="g1498" transform="translate(-374.00488,421.48166)">
</g>
<g id="g1500" transform="translate(-374.00488,421.48166)">
</g>
<g id="g1502" transform="translate(-374.00488,421.48166)">
</g>
<g id="g1504" transform="translate(-374.00488,421.48166)">
</g>
<g id="g1506" transform="translate(-269.00488,441.48166)">
</g>
<g id="g1508" transform="translate(-269.00488,441.48166)">
</g>
<g id="g1510" transform="translate(-269.00488,441.48166)">
</g>
<g id="g1516" transform="translate(-269.00488,441.48166)">
</g>
<g id="g1518" transform="translate(-269.00488,441.48166)">
</g>
<g id="g1520" transform="translate(-374.00488,421.48166)">
</g>
<g id="g1522" transform="translate(-374.00488,421.48166)">
</g>
<g id="g1524" transform="translate(-374.00488,421.48166)">
</g>
<g id="g1526" transform="translate(-269.00488,441.48166)">
</g>
<g id="g1528" transform="translate(-269.00488,441.48166)">
</g>
<g id="g1530" transform="translate(-269.00488,441.48166)">
</g>
<g id="g1532" transform="translate(-269.00488,441.48166)">
</g>
<g id="g1534" transform="translate(-374.00488,421.48166)">
</g>
<g id="g1536" transform="translate(-374.00488,421.48166)">
</g>
<g id="g1538" transform="translate(-374.00488,421.48166)">
</g>
<g id="g1540" transform="translate(-269.00488,441.48166)">
</g>
<g id="g1542" transform="translate(-269.00488,441.48166)">
</g>
<g id="g1544" transform="translate(-269.00488,441.48166)">
</g>
<g id="g1546" transform="translate(-374.00488,421.48166)">
</g>
<g id="g1548" transform="translate(-374.00488,421.48166)">
</g>
<g id="g1550" transform="translate(-374.00488,421.48166)">
</g>
<g id="g1552" transform="translate(-269.00488,441.48166)">
</g>
<g id="g1554" transform="translate(-269.00488,441.48166)">
</g>
<g id="g1556" transform="translate(-374.00488,421.48166)">
</g>
<g id="g1558" transform="translate(-374.00488,421.48166)">
</g>
<g id="g1560" transform="translate(-374.00488,421.48166)">
</g>
<g id="g1562" transform="translate(-374.00488,421.48166)">
</g>
<g id="g1564" transform="translate(-344.00488,439.48166)">
</g>
<g id="g1566" transform="translate(-344.00488,439.48166)">
</g>
<g id="g1568" transform="translate(-344.00488,439.48166)">
</g>
<g id="g1570" transform="matrix(0.714286,0,0,0.714286,-344.00488,439.48166)">
</g>
<g id="g1576" transform="matrix(0.714286,0,0,0.714286,-344.00488,439.48166)">
</g>
<g id="g1578" transform="matrix(0.714286,0,0,0.714286,-344.00488,439.48166)">
</g>
<g id="g1580" transform="translate(-374.00488,421.48166)">
</g>
<g id="g1582" transform="translate(-374.00488,421.48166)">
</g>
<g id="g1584" transform="translate(-374.00488,421.48166)">
</g>
<g id="g1586" transform="translate(-344.00488,439.48166)">
</g>
<g id="g1588" transform="translate(-344.00488,439.48166)">
</g>
<g id="g1590" transform="translate(-344.00488,439.48166)">
</g>
<g id="g1592" transform="matrix(0.714286,0,0,0.714286,-344.00488,439.48166)">
</g>
<g id="g1594" transform="translate(-374.00488,421.48166)">
</g>
<g id="g1596" transform="translate(-374.00488,421.48166)">
</g>
<g id="g1598" transform="translate(-374.00488,421.48166)">
</g>
<g id="g1600" transform="translate(-344.00488,439.48166)">
</g>
<g id="g1602" transform="translate(-344.00488,439.48166)">
</g>
<g id="g1604" transform="translate(-344.00488,439.48166)">
</g>
<g id="g1606" transform="translate(-374.00488,421.48166)">
</g>
<g id="g1608" transform="translate(-374.00488,421.48166)">
</g>
<g id="g1610" transform="translate(-374.00488,421.48166)">
</g>
<g id="g1612" transform="translate(-344.00488,439.48166)">
</g>
<g id="g1614" transform="translate(-344.00488,439.48166)">
</g>
<g id="g1616" transform="translate(-374.00488,421.48166)">
</g>
<g id="g1618" transform="translate(-374.00488,421.48166)">
</g>
<g id="g1620" transform="translate(-374.00488,421.48166)">
</g>
<g id="g1622" transform="translate(-374.00488,421.48166)">
</g>
<g id="g1624" transform="translate(-374.00488,421.48166)">
</g>
<g id="g1626" transform="translate(-374.00488,421.48166)">
</g>
<g id="g1628" transform="translate(-374.00488,421.48166)">
</g>
<g id="g1630" transform="translate(-374.00488,421.48166)">
</g>
<g id="g1632" transform="translate(-374.00488,421.48166)">
</g>
<g id="g1634" transform="translate(-374.00488,421.48166)">
</g>
<g id="g1636" transform="translate(-374.00488,421.48166)">
</g>
<g id="g1638" transform="translate(-374.00488,421.48166)">
</g>
<g id="g1640" transform="translate(-374.00488,421.48166)">
</g>
<g id="g1642" transform="translate(-374.00488,421.48166)">
</g>
<g id="g1644" transform="translate(-374.00488,421.48166)">
</g>
<g id="g1646" transform="translate(-374.00488,421.48166)">
</g>
<g id="g1648" transform="translate(-374.00488,421.48166)">
</g>
<g id="g1650" transform="translate(-374.00488,421.48166)">
</g>
<g id="g1652" transform="translate(-374.00488,421.48166)">
</g>
<g id="g1654" transform="translate(-374.00488,421.48166)">
</g>
<g id="g1656" transform="translate(-374.00488,421.48166)">
</g>
<g id="g1658" transform="translate(-374.00488,421.48166)">
</g>
<g id="g1660" transform="translate(-374.00488,421.48166)">
</g>
<g id="g1682" transform="translate(-374.00488,421.48166)">
</g>
<g id="g1684" transform="translate(-374.00488,421.48166)">
</g>
<g id="g1686" transform="translate(-374.00488,421.48166)">
</g>
</svg>
