<?xml version="1.0" encoding="utf-8"?>
<!-- Generator: Adobe Illustrator 23.1.1, SVG Export Plug-In . SVG Version: 6.00 Build 0)  -->
<svg version="1.1" id="Capa_1" xmlns="http://www.w3.org/2000/svg" xmlns:xlink="http://www.w3.org/1999/xlink" x="0px" y="0px"
	 viewBox="0 0 512 512" style="enable-background:new 0 0 512 512;" xml:space="preserve">
<style type="text/css">
	.st0{fill:#a0a4a9;}
</style>
<g>
	<path class="st0" d="M378.3,293.1h116.4c0.9-8.1,1.3-16.3,1.3-24.8c0-39.6-10.7-76.6-29.2-108.6c19.1-51,18.5-94.2-7.2-120.1
		c-24.4-24.4-89.9-20.4-163.9,12.4c-5.5-0.4-11.1-0.6-16.6-0.6c-101.6,0-187,69.9-210.6,164.1c31.9-40.8,65.4-70.4,110.2-91.9
		c-4,3.8-27.8,27.4-31.9,31.5C28.7,273.3-8.6,427.5,31.5,467.6c30.5,30.5,85.8,25.4,149.2-5.7c29.5,15,63,23.5,98.3,23.5
		c95.3,0,176-61.4,205.3-146.7H366.9c-16.2,29.8-47.8,50-84,50s-67.8-20.2-84-50c-7.2-13.4-11.3-28.9-11.3-45.2v-0.4L378.3,293.1
		L378.3,293.1z M187.8,235.9c2.7-47.9,42.5-86.1,91.2-86.1s88.5,38.2,91.2,86.1H187.8L187.8,235.9z M458.6,63.7
		c16.6,16.7,16.1,47.4,2,85.8c-24.3-37-59.5-66.1-101.1-82.7C403.9,47.9,440.1,45.3,458.6,63.7z M62.1,460
		C41,438.9,47.4,394.6,74.5,341.2c17,47.4,49.9,87.3,92.5,113C119.9,475.6,81.4,479.2,62.1,460z"/>
</g>
</svg>
