<?xml version="1.0" encoding="utf-8"?>
<!-- Generator: Adobe Illustrator 23.1.1, SVG Export Plug-In . SVG Version: 6.00 Build 0)  -->
<svg version="1.1" id="Livello_1" xmlns="http://www.w3.org/2000/svg" xmlns:xlink="http://www.w3.org/1999/xlink" x="0px" y="0px"
	 viewBox="0 0 512 512" style="enable-background:new 0 0 512 512;" xml:space="preserve">
<style type="text/css">
	.st0{fill:#a0a4a9;}
</style>
<g>
	<path class="st0" d="M323.4,464.4c-104.6,0-189.5-93.3-189.5-208.4S218.7,47.6,323.4,47.6c29.3,0,57,7.3,81.7,20.3
		c-41-32.5-92.8-52-149.1-52C123.5,16,16,123.5,16,256s107.5,240,240,240c56.4,0,108.2-19.4,149.1-52
		C380.4,457.1,352.7,464.4,323.4,464.4z"/>
	<path class="st0" d="M259.3,434.9c-11.2,0-22.1-2.1-32.5-6c28.1,19,61.2,30,96.6,30c39.2,0,75.5-13.4,105.4-36.3
		C470.4,379.4,496,320.7,496,256c0-64.7-25.6-123.4-67.2-166.6c-29.9-22.9-66.2-36.3-105.4-36.3c-39.7,0-76.5,13.8-106.6,37.2
		c13.3-6.8,27.6-10.4,42.5-10.4c69.2,0,125.4,79.5,125.4,177.5S328.5,434.9,259.3,434.9z"/>
</g>
</svg>
