<?xml version="1.0" encoding="utf-8"?>
<!-- Generator: Adobe Illustrator 23.1.1, SVG Export Plug-In . SVG Version: 6.00 Build 0)  -->
<svg version="1.1" id="Livello_1" xmlns="http://www.w3.org/2000/svg" xmlns:xlink="http://www.w3.org/1999/xlink" x="0px" y="0px"
	 viewBox="0 0 512 512" style="enable-background:new 0 0 512 512;" xml:space="preserve">
<style type="text/css">
	.st0{fill:#a0a4a9;}
</style>
<g>
	<g>
		<path class="st0" d="M27.3,109.3c0.6-1.9,0.6-2.6,0.9-3.1c21.6-37.8,51.5-66.8,92-83.8c21.5-9,43.8-7.9,65.3-0.5
			c42.9,14.8,66.8,46.4,76.8,89.5c4.1,17.8,4,35.6-0.3,53.4c-5.9,24-20.2,42.5-39.6,56.9c-16.3,12.1-33.6,23-50.4,34.5
			c-15.9,10.8-31.5,22-44,36.8c-16.6,19.9-25.7,42.7-27,68.7c-1.3,25.9,4.6,50.1,15.4,73.3c12.1,26,32.9,42.6,59.4,52.5
			c7.1,2.7,14.4,4.9,21.6,7.3c-0.2,0.5-0.4,0.9-0.5,1c-21.4,0.5-42.8,0.8-63.6-5.9c-32-10.3-56.6-30.2-76.1-57
			C37,405,25,374.2,26.1,339.2c1.1-37,14.8-69.2,38.3-97.5c12.3-14.9,24.9-29.6,37-44.7c9.2-11.4,17-23.7,19.8-38.5
			c5-26.3-5.6-50.1-27.6-59.8c-21.7-9.5-42.1-5.1-61.4,7.2C30.8,106.8,29.6,107.7,27.3,109.3z"/>
		<path class="st0" d="M135.5,329.3c7.9-22.3,22.9-37.7,43.7-47.5c25.4-12,51.5-13.1,77.7-3.2c42.2,15.9,73,43.4,85.4,88.1
			c7.6,27.6,4.9,55.1-3.7,82.1c-0.5,1.6-1.1,3.1-1.8,5.3c18.6-0.5,34.2,5.9,47.3,18.4c7.3,6.9,12.7,15.7,14.5,23.1
			c-61.4,0-122.6,0-183.9,0c-0.1-0.2-0.2-0.4-0.3-0.5c1.4-0.5,2.8-1.1,4.2-1.6c8.8-3,18-5.3,26.4-9.2c33.3-15.8,50.4-43.2,54.2-79.2
			c2.7-25.7-2.5-49.7-18.8-70.4c-33.8-43.1-99-47.6-139.9-9.8C138.7,326.2,137.1,327.8,135.5,329.3z"/>
		<path class="st0" d="M380.9,103.5c11.2,12.3,17,26,20.6,40.6c1.1,4.5,3.2,6.9,7.5,8.4c44.9,15.7,73.3,55.5,73.7,103
			c0,1.4,0,2.7,0,4.1c0,10.5,0.1,10.8-10.5,13.4c-23.4,5.7-45.9,4.2-67.7-7.1c-21-10.9-42.3-21.6-64-31c-21-9.1-43.5-12.9-66.4-14.1
			c-1.1-0.1-2.3-0.1-3.7-1c1.6-0.7,3.2-1.4,4.8-2.2c21.1-10.4,42.4-20.6,63.3-31.5c7.1-3.7,13.4-9.2,19.7-14.3
			c1.8-1.5,3.1-4.4,3.2-6.8c1.2-15.1,3-30.1,9.6-44C373.5,115.1,377.2,109.8,380.9,103.5z"/>
		<path class="st0" d="M208.2,249.3c10.3-4.9,21.2-7.7,32.6-8.3c42.9-2.3,82.9,7,119.9,29.1c3.1,1.8,6.2,3.5,9.2,5.5
			c23.3,15.5,48.9,23.9,76.6,26.5c6.8,0.6,13.8,2.5,20.1,5.2c10.6,4.5,16.5,13.4,19.4,24.9c-1.5,0-2.4,0.2-3.1,0
			c-15.6-6.3-31-4.4-46.3,0.9c-9.9,3.4-19.6,7.6-29.6,10.9c-10.3,3.3-20.9,4.2-31.7,2.2c-7-1.3-11.9-4.8-15.4-11.1
			c-10.1-17.6-22.6-33.4-38.1-46.7c-27.6-23.7-59.7-35.7-95.9-37.2c-5.9-0.2-11.7,0-17.6,0C208.3,250.5,208.3,249.9,208.2,249.3z"/>
	</g>
	<path class="st0" d="M203.3,327.5c-37.7,0-68.3,30.5-68.3,68.2s30.6,68.2,68.3,68.2s68.3-30.5,68.3-68.2S241,327.5,203.3,327.5z
		 M203.3,425.6c-16.5,0-29.9-13.4-29.9-29.8c0-16.5,13.4-29.8,29.9-29.8s29.9,13.4,29.9,29.8C233.2,412.2,219.8,425.6,203.3,425.6z"
		/>
</g>
</svg>
