<?xml version="1.0" encoding="utf-8"?>
<!-- Generator: Adobe Illustrator 23.1.1, SVG Export Plug-In . SVG Version: 6.00 Build 0)  -->
<svg version="1.1" id="Livello_1" xmlns="http://www.w3.org/2000/svg" xmlns:xlink="http://www.w3.org/1999/xlink" x="0px" y="0px"
	 viewBox="0 0 512 512" style="enable-background:new 0 0 512 512;" xml:space="preserve">
<style type="text/css">
	.st0{fill:#a0a4a9;}
</style>
<path class="st0" d="M457.4,154.3C440.3,126,423,116.9,423,116.9c19.4,28.8,22.7,68.7,22.7,68.7c-23.2-52.7-57.6-87-78-109.2
	C347.2,54.3,327.3,16,327.3,16c-74.7,43.2-80.2,128.1-80.2,128.1c77.5-6.1,109,57.7,109,57.7c-25.5-18-55.7-13.1-55.7-13.1
	s50.7,20.5,50.7,80.8c0,71.5-56.9,98-95.7,98c-46.2,0-79.4-29.2-90.3-48.5c-9.6-17-12.7-35.8-12.7-35.8
	c13.4-44.5,78.6-40.8,78.6-40.8c21-12.2,25.8-26.4,25.8-26.4s-44.3-19.7-52.4-28.6c-8.2-9-26-23.4-26-23.4
	c-8.9-26.1-1.1-57.1-1.1-57.1c-31,15-54.2,43.8-54.2,43.8c-10.5-23.3-7.7-57.1-7.7-57.1C78.8,111.9,26,175.7,26,265.6
	C26,392.8,129,496,256,496s230-103.2,230-230.4C486,225.2,475.6,187.2,457.4,154.3z"/>
</svg>
