<?xml version="1.0" encoding="utf-8"?>
<!-- Generator: Adobe Illustrator 26.0.2, SVG Export Plug-In . SVG Version: 6.00 Build 0)  -->
<svg version="1.1" id="Layer_1" xmlns="http://www.w3.org/2000/svg" xmlns:xlink="http://www.w3.org/1999/xlink" x="0px" y="0px"
	 viewBox="0 0 1040 155" style="enable-background:new 0 0 1040 155;" xml:space="preserve" fill="currentColor">
<g>
	<g>
		<g>
			<path class="st0" d="M372,97.8c-3.4-6.6-8.6-11.2-12.8-13.1v-0.3c11.2-5.1,21.5-17.3,21.5-30.7c0-27-23.2-39.5-48.4-39.5h-61.2
				v23.7h60.2l0,0h1c13.9,0,21.4,5.6,21.4,16.4c0,8.2-6.6,15.9-22.4,16.1l0,0h-0.2c-0.1,0-0.2,0-0.4,0h-59.6V93h49.1
				c14.7,0,21.8,4.4,27,14.2l17.3,33.4h29.8L372,97.8z"/>
			<path class="st0" d="M497.1,75v-0.2c7.9-5.3,11.8-14,11.8-24c0-19.5-15-36.5-44.1-36.5h-63.7V38h62.2c14.2,0,18.7,5.1,18.7,13.1
				c0,7.2-3.4,13.6-18.7,13.6h-62.2v22.1h65c16.4,0,21.4,6.7,21.4,15.3c0,8.7-4.2,14.8-21.4,14.8h-65v23.7h65
				c30.2,0,48.3-14.3,48.3-38.2C514.4,88.7,507.3,78.5,497.1,75"/>
			<path class="st0" d="M196.1,14.1l-47.7,102.2l-11.8,24.1h25.3l14-30.1h61.2l14,30.1h24.8l-59-126.3H196.1z M229.2,89.7h-45l1.5-2
				l20.9-45.9h0.3l20.8,45.9L229.2,89.7z"/>
			<g>
				<path class="st0" d="M131.7,119.7c-13.5,14.6-31.6,22.7-53.4,22.7c-44.6,0-67.9-26.5-67.9-64.3c0-37.9,24.3-65.6,68.1-65.6
					c22.7,0,39.8,7.2,53.1,22.2L113.3,53c-8.1-11.1-19.6-16.9-34.7-16.9c-28.8,0-41,17.8-41,42c0,23.3,11.4,40.5,40.9,40.5
					c15.2,0,27.1-5.9,35.4-16.7L131.7,119.7z"/>
				<path class="st0" d="M790.2,140.7h-22.4l-57.1-69.8L701.3,56H701v84.7h-26.6V13.9h22.4l57.8,69.8l8.8,14.4h0.3V13.9h26.6
					L790.2,140.7L790.2,140.7z"/>
				<path class="st0" d="M838.6,140.7H812V13.9h26.6V140.7z"/>
				<path class="st0" d="M922.2,142.2c-42.7,0-65.3-26.4-65.3-64.2c0-37.7,22.5-65.7,65.3-65.7c43,0,65.3,28,65.3,65.7
					C987.4,115.8,964.2,142.2,922.2,142.2z M922.2,36.1c-26.9,0-38.2,17.5-38.2,42c0,23.6,11.3,40.4,38.2,40.4
					c27.2,0,38.2-16.7,38.2-40.4C960.3,54.3,949.4,36.1,922.2,36.1z"/>
				<path class="st0" d="M593.2,142.4c-42.7,0-65.3-26.4-65.3-64.2c0-37.7,22.5-65.7,65.3-65.7c43,0,65.3,28,65.3,65.7
					C658.5,116,635.3,142.4,593.2,142.4z M593.2,36.3c-26.9,0-38.2,17.5-38.2,42c0,23.6,11.3,40.4,38.2,40.4
					c27.2,0,38.2-16.7,38.2-40.4C631.4,54.4,620.5,36.3,593.2,36.3z"/>
			</g>
		</g>
	</g>
</g>
<g>
	<path class="st0" d="M1032.6,122.6v16.2h-32.4V123c0-7.3,4.3-10.8,9.2-10.8c2.7,0,4.8,1,6.3,3.1h0.1c0.9-2.8,3.8-4.5,7.3-4.5
		C1029,110.8,1032.6,115.1,1032.6,122.6z M1005.5,123.4v10.2l0.6-0.6h6.7l0.6,0.6v-10.2c0-4.2-1.8-5.3-4-5.3
		C1006.8,118.1,1005.5,119.6,1005.5,123.4z M1018.6,122.7v10.9l0.6-0.6h7.6l0.6,0.6v-11c0-4.6-1.6-6-4.3-6
		C1020.4,116.7,1018.6,118.3,1018.6,122.7z"/>
	<path class="st0" d="M1032.6,79.6v25.8h-32.4V79.6h5.3v20.6l0.6-0.6h7.2l0.6,0.6V81.5h5.3v18.6l0.6-0.6h7.2l0.6,0.6V79.6H1032.6z"
		/>
	<path class="st0" d="M1005.5,47.8v11.5l0.6-0.3h26.6v5.8h-26.6l-0.6-0.3V76h-5.3V47.8H1005.5z"/>
	<path class="st0" d="M1032.6,14.4v6.4l-7.2,3.4l-0.5-0.3v16.8l0.5-0.3l7.2,3.4V50l-32.4-15.1v-5.4L1032.6,14.4z M1019.6,26.5
		l-0.5,0.6l-9.1,4.2l-2.7,0.8v0.1l2.7,0.9l9.1,4.2l0.5,0.6V26.5z"/>
</g>
</svg>
