<svg width="222" height="256" viewBox="0 0 222 256" fill="currentColor" xmlns="http://www.w3.org/2000/svg">
<path d="M81.1761 193.407L81.4126 194.427C81.3027 194.576 81.2256 194.754 81.2256 194.952C81.2256 195.321 81.4459 195.633 81.759 195.779C81.7533 195.776 81.7457 195.777 81.7395 195.774C69.2422 189.671 56.46 174.851 48.3232 157.062L51.0854 158.614C58.7563 174.354 70.0226 187.384 81.1761 193.407"/>
<path d="M48.107 105.421L47.9034 105.879L45.4053 107.021C45.41 107.009 45.4067 106.994 45.4129 106.98L46.433 104.684C49.2129 98.3843 51.2218 93.8326 57.2578 87.3588C57.3225 87.2898 57.401 87.2446 57.4794 87.2009L57.5019 89.808C52.5128 95.4402 50.6356 99.6862 48.107 105.421Z"/>
<path d="M84.1828 68.3025H83.865C84.0006 68.0962 84.0563 67.839 83.9901 67.5814C83.8664 67.0937 83.3692 66.8004 82.8795 66.9221L82.7935 66.9449C88.5705 64.0622 98.8604 61.0024 110.558 61.0024V62.8296C99.5522 62.8296 89.8648 65.5993 84.1828 68.3025"/>
<path d="M110.559 61.0029C110.777 61.0029 110.999 61.0134 111.217 61.0181V61.2899C111.051 61.1149 110.819 61.0029 110.559 61.0029Z"/>
<path d="M111.218 61.2887V62.5425C111.052 62.7188 110.818 62.8287 110.559 62.8287V61.0029C110.818 61.0029 111.052 61.1142 111.218 61.2887Z"/>
<path d="M76.3762 170.119L75.8819 170.587C75.5293 170.923 75.5141 171.483 75.8501 171.838C75.9542 171.946 76.0822 172.013 76.2164 172.056L76.2193 172.076C76.1697 172.059 76.1169 172.062 76.067 172.036C67.7694 167.703 60.6253 161.97 55.2236 155.377V152.439C60.4897 159.444 67.7889 165.539 76.3762 170.119"/>
<path d="M62.4789 109.008L61.9141 108.827C61.9607 108.831 62.0027 108.834 62.0602 108.841C62.2196 108.857 62.3553 108.924 62.4789 109.008"/>
<path d="M61.5432 110.627C61.409 110.615 61.3128 110.606 61.1815 110.597L60.8213 110.567C58.406 110.374 56.3118 111.262 55.2236 112.1V109.936C55.7585 109.648 56.3718 109.39 57.0455 109.183L61.5432 110.627V110.627Z"/>
<path d="M111.217 115.364H83.0552V115.819H111.217V115.364Z"/>
<path d="M82.1404 117.189C82.3317 117.189 82.5201 117.129 82.6785 117.015C82.7808 116.939 82.856 116.84 82.9193 116.733H111.217V117.189H83.2538L91.1783 157.105H90.4279C90.1943 157.105 90.0044 157.214 89.846 157.358C89.837 157.367 89.8265 157.369 89.8189 157.376L89.7046 157.485L89.4392 157.735L81.3477 116.982L81.8601 117.146C81.9519 117.176 82.0471 117.189 82.1404 117.189"/>
<path d="M82.9624 195.355C83.1642 194.942 83.0134 194.462 82.6427 194.209L82.6818 194.039H111.218V195.868H82.1411C82.4785 195.868 82.804 195.68 82.962 195.355"/>
<path d="M81.2256 194.953C81.2256 194.753 81.3026 194.577 81.4126 194.426L81.5587 195.057C81.6068 195.263 81.7923 195.41 82.0045 195.41H82.0064C82.2172 195.41 82.4023 195.263 82.4508 195.054L82.6421 194.209C83.0142 194.462 83.1636 194.941 82.9614 195.355C82.8034 195.678 82.4794 195.867 82.1402 195.867C82.0121 195.867 81.8827 195.836 81.759 195.779C81.4458 195.633 81.2256 195.322 81.2256 194.953"/>
<path d="M91.0701 157.41C90.7399 157.064 90.2051 157.049 89.8467 157.359C90.0047 157.213 90.1946 157.105 90.4282 157.105H111.217V158.934H90.7508L91.0368 158.66C91.3894 158.322 91.4046 157.762 91.0701 157.41"/>
<path d="M76.491 172.143C76.717 172.143 76.9173 172.033 77.0876 171.88C77.0905 171.875 77.0967 171.874 77.1014 171.869L77.1086 171.863L81.9997 192.915L89.475 160.141L90.6731 159.006L82.6825 194.039H82.3675C81.9711 193.844 81.5733 193.622 81.1755 193.407L76.2197 172.075C76.3101 172.104 76.3991 172.143 76.491 172.143Z"/>
<path d="M82.1403 194.039C81.8358 194.039 81.5783 194.197 81.4123 194.427L81.1758 193.407C81.5736 193.622 81.9699 193.843 82.3663 194.039H82.1403Z"/>
<path d="M77.0866 171.88C76.9177 172.034 76.7174 172.144 76.4899 172.144C76.3995 172.144 76.3091 172.103 76.2202 172.076L76.2158 172.057C76.3048 172.087 76.3966 172.111 76.4914 172.111C76.7055 172.111 76.9163 172.034 77.0866 171.88"/>
<path d="M82.3672 194.039H82.6818L82.6427 194.21C82.608 194.187 82.5824 194.152 82.5433 194.133C82.4847 194.105 82.4258 194.069 82.3672 194.039Z"/>
<path d="M82.3671 194.039C82.4257 194.069 82.4846 194.105 82.5432 194.132C82.5822 194.152 82.6079 194.186 82.6426 194.209L82.4513 195.055C82.4032 195.263 82.2177 195.41 82.0054 195.41H82.0036C81.7928 195.41 81.6076 195.263 81.5592 195.058L81.4131 194.427C81.5787 194.197 81.8351 194.039 82.1411 194.039H82.3671Z"/>
<path d="M93.6799 68.503C93.7085 68.5425 93.7085 68.5907 93.7236 68.636C93.7009 68.5726 93.6741 68.5135 93.6289 68.4668C93.6452 68.482 93.668 68.4849 93.6799 68.503"/>
<path d="M77.2461 74.4904L82.054 72.937L77.2461 74.4904Z"/>
<path d="M77.2461 102.23V101.991L80.7825 98.9066C81.3835 86.8682 89.4722 73.6647 92.0802 69.6968L93.4364 69.259C93.5449 69.2243 93.6295 69.1492 93.6895 69.0603C93.6852 69.0661 93.6866 69.0722 93.6837 69.0769C93.5705 69.2362 82.3541 85.1024 81.7542 99.1595C81.7484 99.2931 81.688 99.4196 81.5871 99.5084L78.2782 102.394L77.2747 102.228C77.2642 102.227 77.2551 102.23 77.2461 102.23"/>
<path d="M76.6758 73.6438L82.5838 71.7339L76.6772 73.6438H76.6758Z"/>
<path d="M92.0795 69.6973L82.0532 72.938L92.0795 69.6973Z"/>
<path d="M93.7688 68.7163C93.7707 68.7301 93.7616 68.7391 93.7631 68.7525C93.7584 68.7119 93.7374 68.6743 93.7236 68.6348C93.7345 68.6652 93.7645 68.6848 93.7688 68.7163Z"/>
<path d="M93.3503 68.3269C93.2794 68.3179 93.2056 68.3042 93.1333 68.3269L82.5841 71.7346L90.1813 69.2795L81.65 69.2705L75.7207 70.6328L83.3302 68.6925C83.3692 68.6835 83.3992 68.6564 83.434 68.643C83.4611 68.6326 83.4897 68.6369 83.5153 68.6235C83.728 68.5166 83.9583 68.4097 84.1829 68.3027H93.2841C93.3094 68.3027 93.326 68.324 93.3503 68.3269"/>
<path d="M83.4351 68.644C83.6144 68.5716 83.7649 68.4567 83.8658 68.3027H84.184C83.9594 68.41 83.7273 68.5172 83.5164 68.6241C83.4908 68.6379 83.4622 68.6332 83.4351 68.644Z"/>
<path d="M92.0795 69.697L82.0533 72.9378L77.245 74.4911V74.1342C77.245 73.8633 77.0251 73.6436 76.7539 73.6436H76.6772L82.5838 71.7352L93.133 68.3258C93.2067 68.3034 93.2791 68.3167 93.3499 68.3258C93.4147 68.3362 93.4689 68.3575 93.5246 68.3904C93.5637 68.4146 93.5984 68.4327 93.6288 68.4659C93.674 68.5125 93.7011 68.5728 93.7235 68.6343C93.7369 68.6736 93.7582 68.7112 93.7626 68.7517C93.7687 68.8239 93.7459 68.8904 93.7206 68.9594C93.7069 68.9941 93.7083 69.0302 93.6888 69.0605C93.6288 69.149 93.5441 69.2245 93.4356 69.2592L92.0795 69.697V69.697Z"/>
<path d="M62.1818 100.85C62.4469 100.842 62.6581 100.622 62.6505 100.356L62.6415 99.9751L72.6044 102.019L72.6073 102.612L73.5414 102.606C73.5414 102.641 73.5671 102.669 73.5595 102.705C73.5129 102.933 73.3125 103.089 73.088 103.089C73.0565 103.089 73.0247 103.086 72.9918 103.079L62.0733 100.839C62.0281 100.83 62.0054 100.788 61.9663 100.767C62.0325 100.801 62.0914 100.85 62.1699 100.85H62.1818Z"/>
<path d="M76.7538 74.6247C76.8066 74.6247 76.8565 74.6172 76.906 74.6005L77.2453 74.4907V102.23C76.8037 102.172 76.3893 102.451 76.2627 102.877V74.6247H76.7538V74.6247Z"/>
<path d="M76.6032 73.6674C76.4015 73.7339 76.2629 73.9221 76.2629 74.1341V74.6247H60.0557L63.9042 73.6436H76.6756L76.6032 73.6674Z"/>
<path d="M76.7538 74.6246H76.2627V74.1337C76.2627 73.9216 76.4012 73.7334 76.6034 73.6673L76.6757 73.6445H76.7538C77.025 73.6445 77.2453 73.8627 77.2453 74.1337V74.4906L76.906 74.6004C76.8565 74.617 76.8066 74.6246 76.7538 74.6246"/>
<path d="M72.4686 79.1979L62.1046 78.8699L62.1892 82.219L61.7491 82.1919C61.4822 82.1843 61.2562 82.3754 61.2381 82.6402L61.1296 78.3851C61.1253 78.2525 61.1767 78.1261 61.27 78.0329C61.3633 77.9397 61.4884 77.8718 61.624 77.8931L72.9612 78.2525C73.219 78.2601 73.4161 78.474 73.4194 78.7283L72.4654 78.7359L72.4686 79.1979V79.1979Z"/>
<path d="M61.6869 83.1501L62.2142 83.183L62.3093 86.9175L61.8887 86.8738C61.628 86.8406 61.3871 87.0378 61.36 87.3012C61.3329 87.5645 61.5242 87.8011 61.7878 87.8297L62.3332 87.8867L62.4236 91.4511L62.2399 91.424C61.9657 91.3846 61.7336 91.5685 61.6945 91.8304C61.6551 92.0923 61.8392 92.3362 62.1014 92.3752L62.4492 92.4265L62.5368 95.9078L62.2594 95.8568C61.9762 95.8117 61.7473 95.98 61.6974 96.2405C61.6493 96.5024 61.8211 96.7524 62.0818 96.8019L62.5624 96.8907L62.6405 99.9765L62.267 99.8981C62.0005 99.8453 61.7531 100.014 61.6989 100.273C61.6822 100.357 61.7184 100.428 61.7441 100.505C61.7292 100.461 61.6913 100.429 61.6898 100.383L61.2378 82.6411C61.2211 82.9045 61.4233 83.1335 61.6869 83.1501"/>
<path d="M62.2666 99.8987L62.6419 99.9757L62.651 100.356C62.6582 100.623 62.4474 100.843 62.1823 100.85H62.17C62.0919 100.85 62.0329 100.802 61.9668 100.767C61.9078 100.737 61.8554 100.715 61.8131 100.663C61.774 100.617 61.7632 100.564 61.7436 100.505C61.7198 100.429 61.6818 100.356 61.6984 100.274C61.7545 100.015 62.0015 99.8446 62.2666 99.8987Z"/>
<path d="M73.1848 102.139L72.6047 102.02L72.5852 98.7554C72.6 98.7583 72.6181 98.7597 72.6333 98.7597C72.8607 98.7597 73.0625 98.5986 73.1063 98.3685C73.1544 98.108 72.983 97.8566 72.7222 97.8071L72.579 97.78L72.5562 93.9071L72.7146 93.9299C72.7389 93.9328 72.7613 93.9342 72.7841 93.9342C73.0206 93.9342 73.2238 93.7641 73.26 93.5235C73.299 93.2612 73.1168 93.0174 72.8531 92.9784L72.5505 92.9347L72.5262 88.9657L72.5819 88.9718C72.5986 88.9733 72.6166 88.9747 72.6333 88.9747C72.8759 88.9747 73.0853 88.7912 73.1124 88.5441C73.1381 88.2808 72.9468 88.0445 72.6828 88.016L72.5201 87.9979L72.4944 83.8375L72.7522 83.8555C72.7627 83.8555 72.7732 83.857 72.7841 83.857C73.0354 83.857 73.2481 83.6615 73.2647 83.4054C73.2813 83.1406 73.0792 82.9134 72.8155 82.8968L72.4901 82.8758L72.4673 79.1984L72.9316 79.2136C73.1905 79.2573 73.4184 79.012 73.4256 78.7486C73.4274 78.7411 73.4198 78.7363 73.4198 78.7288H73.4256L73.5688 102.607H73.5402C73.5359 102.387 73.4093 102.186 73.1848 102.139"/>
<path d="M72.6045 102.02L73.1846 102.139C73.4106 102.185 73.5371 102.387 73.5418 102.607L72.6074 102.613L72.6045 102.02Z"/>
<path d="M72.9312 79.2128L72.4687 79.1977L72.4658 78.7356L73.4194 78.7295C73.4194 78.7371 73.427 78.7418 73.427 78.7476C73.4194 79.0127 73.1905 79.2565 72.9312 79.2128"/>
<path fill-rule="evenodd" clip-rule="evenodd" d="M72.4946 83.8375L62.127 83.1771L62.1881 82.2195L72.5557 82.8798L72.4946 83.8375Z"/>
<path d="M61.7492 82.1916L62.189 82.2202L62.2132 83.1836L61.686 83.1504C61.4238 83.1338 61.2216 82.9051 61.2383 82.6417V82.6399C61.2549 82.3751 61.4824 82.184 61.7492 82.1916"/>
<path d="M72.8157 82.8964C73.0793 82.9131 73.2811 83.1417 73.2645 83.4051C73.2479 83.6612 73.0356 83.8566 72.7839 83.8566C72.7734 83.8566 72.7629 83.8552 72.7524 83.8552L72.496 83.8371L72.4902 82.8755L72.8157 82.8964V82.8964Z"/>
<path d="M62.3086 86.9178L72.5204 87.9983L72.5262 88.9646L62.3343 87.8871L62.3086 86.9175V86.9178Z"/>
<path d="M61.7882 87.829C61.5242 87.8005 61.3329 87.5642 61.36 87.3009C61.3871 87.0375 61.6283 86.8403 61.8891 86.8735L62.3093 86.9187L62.3335 87.8865L61.7882 87.829Z"/>
<path d="M72.6832 88.0159C72.9469 88.0444 73.1385 88.2807 73.1129 88.5444C73.0857 88.7911 72.8764 88.9746 72.6337 88.9746C72.6171 88.9746 72.599 88.9732 72.5823 88.9717L72.5267 88.9656L72.5205 87.9978L72.6832 88.0159V88.0159Z"/>
<path d="M62.4238 91.4507L72.5495 92.9347L72.5557 93.9071L62.4495 92.426L62.4238 91.4507Z"/>
<path d="M62.1012 92.3752C61.839 92.3358 61.6568 92.092 61.6944 91.8301C61.7338 91.5682 61.9656 91.3847 62.2401 91.4237L62.4238 91.4508L62.4495 92.4261L62.1012 92.3752V92.3752Z"/>
<path d="M72.8539 92.9783C73.1161 93.0173 73.2987 93.2615 73.2608 93.5234C73.2246 93.7625 73.0199 93.9341 72.7849 93.9341C72.7621 93.9341 72.7382 93.9327 72.7154 93.9298L72.5556 93.907L72.5498 92.9346L72.8539 92.9783Z"/>
<path d="M62.5618 96.8912L62.5361 95.9082L72.5776 97.7805L72.5834 98.7559C72.5714 98.7544 72.5577 98.7544 72.5443 98.7516L62.5618 96.8912Z"/>
<path d="M62.0812 96.8017C61.8205 96.7519 61.6487 96.5023 61.6971 96.2404C61.7467 95.9814 61.976 95.8112 62.2591 95.8564L62.5379 95.9077L62.5618 96.8921L62.0812 96.8017V96.8017Z"/>
<path d="M72.7218 97.8071C72.9826 97.8566 73.1543 98.108 73.1062 98.3685C73.0625 98.599 72.8607 98.7597 72.6329 98.7597C72.618 98.7597 72.5999 98.7583 72.5848 98.7554L72.5786 97.78L72.7218 97.8071V97.8071Z"/>
<path d="M83.0555 104.411V103.953C83.0555 103.785 82.998 103.634 82.917 103.498H111.218V104.411H83.0555V104.411Z"/>
<path d="M83.0555 115.819L111.218 115.819V116.733H82.9185C83.0013 116.594 83.0555 116.442 83.0555 116.277V115.819V115.819Z"/>
<path d="M82.2879 68.218C82.3059 68.2541 82.3436 68.2689 82.3663 68.3021H81.5404L58.1717 73.6561C58.1156 73.6695 58.0856 73.7146 58.039 73.7435C58.0057 73.7645 57.9605 73.7598 57.9319 73.7887C57.9229 73.7992 57.9258 73.8158 57.9167 73.8263C57.8672 73.8848 57.852 73.9556 57.8339 74.0307C57.8249 74.0701 57.7887 74.0986 57.7902 74.1391L57.9034 87.0702C57.754 87.0749 57.6126 87.1258 57.4799 87.2013L57.3653 74.1424C57.3624 73.7208 57.6473 73.3534 58.0556 73.2483L82.7927 66.9446C82.7609 66.9612 82.7265 66.976 82.6947 66.9926C82.2427 67.2184 82.0618 67.7679 82.2879 68.218"/>
<path d="M58.5023 100.066H58.507C58.7782 100.064 58.9966 99.8427 58.9937 99.5703L58.7753 74.625H60.0558L59.2017 74.8417L59.4172 99.5674C59.4186 99.8564 59.2845 100.129 59.0537 100.305C58.8248 100.478 58.525 100.532 58.2462 100.452L55.5069 99.6516V106.771L61.9139 108.827C61.6412 108.8 61.519 108.79 61.3215 108.774L60.9689 108.747C59.5315 108.631 58.1996 108.829 57.0452 109.184L55.2237 108.599V102.531L53.6763 103.238V98.4324C53.6763 98.1448 53.8133 97.8739 54.0437 97.7009C54.2744 97.5278 54.5713 97.4737 54.8483 97.5564L57.5772 98.3526L57.502 89.8092C57.6376 89.6556 57.7822 89.4992 57.9222 89.3442L58.0112 99.5794C58.014 99.8488 58.2343 100.066 58.5023 100.066"/>
<path d="M81.6844 115.363H81.0274L81.3485 116.981L61.543 110.628C61.6305 110.635 61.7299 110.644 61.876 110.659C62.3671 110.712 62.8282 110.345 62.8781 109.842C62.9125 109.499 62.744 109.19 62.4785 109.008L81.2263 115.024V104.73L76.9771 104.032C76.4784 103.949 76.141 103.479 76.2238 102.981C76.2296 102.943 76.2538 102.914 76.2628 102.877V103.07C76.2628 103.189 76.3171 103.29 76.3909 103.378C76.4122 103.404 76.4361 103.417 76.4617 103.439C76.4936 103.464 76.5145 103.499 76.5507 103.515C76.6169 103.544 76.6863 103.559 76.7539 103.559C76.87 103.559 76.9861 103.519 77.078 103.439L78.2775 102.394L82.2887 103.053C82.5643 103.098 82.7827 103.27 82.9169 103.497H81.6844V115.363V115.363Z"/>
<path d="M83.0558 104.412H82.5977V115.363H83.0558V104.412Z"/>
<path d="M62.6064 73.6438L75.72 70.6321L63.9036 73.6438H62.6064Z"/>
<path d="M57.9225 89.3449C57.7825 89.4999 57.6379 89.6563 57.5023 89.8084L57.4795 87.2017C57.6122 87.1247 57.7536 87.0753 57.903 87.0706L57.9225 89.3449Z"/>
<path d="M83.9902 67.5814C84.0564 67.839 84.0007 68.0962 83.865 68.3025H82.3657C82.3429 68.2692 82.3053 68.2544 82.2872 68.2183C82.0612 67.7682 82.242 67.2188 82.6941 66.9915C82.7259 66.9764 82.7621 66.9597 82.7935 66.9446L82.8796 66.9222C83.3693 66.8001 83.865 67.0938 83.9902 67.5814Z"/>
<path d="M62.8781 109.841C62.8281 110.344 62.3671 110.713 61.876 110.658C61.7299 110.644 61.6304 110.635 61.5429 110.627L57.0449 109.184C58.2007 108.828 59.5311 108.631 60.9686 108.747L61.3212 108.776C61.5201 108.79 61.6409 108.8 61.9136 108.827L62.4784 109.007C62.7439 109.191 62.911 109.498 62.8781 109.841"/>
<path d="M83.0558 115.364H82.5977V115.819H83.0558V115.364Z"/>
<path d="M81.6844 115.363V116.734H82.9183C82.8565 116.84 82.7813 116.939 82.6789 117.014C82.5205 117.13 82.3321 117.189 82.1408 117.189C82.0475 117.189 81.9524 117.175 81.8605 117.147L81.3485 116.981L81.0273 115.363H81.6844Z"/>
<path d="M76.7539 103.559C77.0251 103.559 77.2454 103.34 77.2454 103.069V102.23C77.2559 102.23 77.2634 102.227 77.2739 102.229L78.2775 102.394L77.0779 103.439C76.9861 103.519 76.87 103.559 76.7539 103.559"/>
<path d="M76.5509 103.516C76.5147 103.5 76.4919 103.463 76.4619 103.439C76.5447 103.504 76.6398 103.56 76.7541 103.56C76.6865 103.56 76.6156 103.545 76.5509 103.516"/>
<path d="M83.4347 68.6427C83.3985 68.6564 83.37 68.6835 83.3306 68.6925L75.7196 70.6328L62.6061 73.6444H58.2799C58.1895 73.6444 58.1157 73.6972 58.0391 73.7438C58.0843 73.7152 58.1157 73.6686 58.17 73.6567L81.5405 68.3027H82.3664C82.5397 68.557 82.8094 68.7211 83.1045 68.7211C83.2163 68.7211 83.3262 68.6849 83.4347 68.643"/>
<path d="M83.1046 68.7213C82.8092 68.7213 82.5398 68.5573 82.3647 68.303H83.8641C83.7646 68.4565 83.6138 68.571 83.4348 68.6433C83.3263 68.6852 83.216 68.7213 83.1046 68.7213"/>
<path d="M58.2802 74.6246H58.776L58.9944 99.5714C58.9973 99.8423 58.7788 100.064 58.5076 100.065H58.5015C58.235 100.065 58.0147 99.8485 58.0118 99.5804L57.9229 89.3453C58.1446 89.1 58.3615 88.8562 58.5951 88.6048C58.9401 88.2359 58.9188 87.6579 58.5499 87.3148C58.3673 87.1446 58.1341 87.0648 57.9033 87.0709L57.7891 74.1384C57.7891 74.0976 57.8234 74.069 57.8343 74.03C57.8205 74.0857 57.7858 74.1308 57.792 74.1897C57.8205 74.4364 58.0299 74.6246 58.2802 74.6246"/>
<path d="M57.9317 73.7889C57.9603 73.7603 58.0055 73.765 58.0387 73.7437C57.9964 73.7708 57.9483 73.7889 57.9165 73.8266C57.9255 73.8161 57.9226 73.7994 57.9317 73.7889Z"/>
<path d="M58.5956 88.6048C58.362 88.8562 58.1436 89.1 57.9219 89.3453L57.9023 87.0695C58.1331 87.0652 58.3681 87.1446 58.5504 87.3148C58.9196 87.658 58.9406 88.236 58.5956 88.6048Z"/>
<path d="M77.2457 102.23V103.07C77.2457 103.341 77.0255 103.559 76.7543 103.559C76.64 103.559 76.5449 103.505 76.4621 103.438C76.435 103.417 76.4122 103.404 76.3912 103.378C76.3174 103.291 76.2632 103.189 76.2632 103.07V102.877C76.3898 102.45 76.8042 102.171 77.2457 102.23Z"/>
<path d="M58.2799 73.6438H63.9033L60.0551 74.6239H58.2799C58.03 74.6239 57.8202 74.4371 57.7917 74.1889C57.7859 74.1315 57.8202 74.0849 57.834 74.0307C57.8506 73.9556 57.8654 73.8848 57.9168 73.8262C57.9486 73.7883 57.9967 73.7702 58.039 73.7431C58.1157 73.698 58.1895 73.6438 58.2799 73.6438V73.6438Z"/>
<path d="M83.0559 104.411H82.5977V115.363H81.6846V103.498H82.9174C82.9987 103.634 83.0559 103.785 83.0559 103.953V104.411Z"/>
<path d="M83.0559 115.82V116.277C83.0559 116.442 83.0016 116.594 82.9188 116.733H81.6846V115.363H82.5977V115.819H83.0559V115.82Z"/>
<path d="M45.8752 108.188C45.9975 108.242 46.124 108.268 46.2488 108.268C46.5971 108.268 46.9316 108.067 47.0838 107.728L47.9033 105.88L53.6775 103.239V107.436C53.6775 107.833 53.9335 108.185 54.3118 108.306L55.2249 108.599V109.936C54.7638 110.184 54.3584 110.449 54.0225 110.716C53.6294 111.03 53.5628 111.605 53.8778 111.999C54.0572 112.227 54.3241 112.344 54.592 112.344C54.7924 112.344 54.9931 112.279 55.1616 112.145C55.1797 112.131 55.2054 112.115 55.2249 112.102V152.439C55.1663 152.363 55.1016 152.289 55.0426 152.212C54.8227 151.913 54.455 151.792 54.1161 151.866C54.0919 151.712 54.0196 151.568 53.8612 151.505L53.3943 151.321V118.976L53.7874 118.893C54.0347 118.842 54.1942 118.6 54.1414 118.353C54.0904 118.106 53.8449 117.947 53.6008 118.001L53.3943 118.043V105.377L41.8188 110.672V108.801L40.0996 109.448L45.4051 107.022C45.2272 107.473 45.4279 107.988 45.8752 108.188"/>
<path d="M53.3935 157.814V152.302L53.502 152.345C53.3512 152.644 53.3617 153.013 53.5743 153.299C54.0987 154.003 54.6606 154.691 55.2241 155.377V160.936L51.0852 158.614C50.6693 157.76 50.2549 156.904 49.86 156.032C49.6491 155.573 49.1067 155.376 48.6485 155.579C48.1874 155.787 47.9856 156.329 48.1921 156.788C48.2355 156.881 48.2807 156.972 48.323 157.063L41.8184 153.413V151.317L53.3935 157.814V157.814Z"/>
<path d="M48.6478 155.579C49.106 155.376 49.6499 155.573 49.8592 156.033C50.2541 156.903 50.6686 157.76 51.0859 158.615L48.3241 157.063C48.2818 156.973 48.2352 156.881 48.1928 156.789C47.9849 156.328 48.1885 155.788 48.6478 155.579Z"/>
<path d="M47.0841 107.727C46.9304 108.067 46.5973 108.267 46.2495 108.267C46.1229 108.267 45.9963 108.242 45.8755 108.188C45.4267 107.987 45.2278 107.475 45.4054 107.021L47.9039 105.879L47.0841 107.727V107.727Z"/>
<path d="M53.6937 152.386C53.876 152.386 54.0477 152.276 54.1186 152.097C54.1486 152.02 54.1262 151.944 54.1157 151.865C54.4546 151.792 54.8223 151.913 55.0437 152.211C55.1012 152.29 55.1659 152.362 55.2245 152.439V155.377C54.6611 154.69 54.0991 154.002 53.5747 153.298C53.3606 153.012 53.3501 152.645 53.5024 152.345L53.5263 152.354C53.5805 152.375 53.6366 152.386 53.6937 152.386"/>
<path d="M55.1617 112.145C54.9928 112.279 54.7924 112.344 54.5921 112.344C54.3238 112.344 54.0569 112.227 53.8779 111.999C53.5629 111.605 53.6276 111.03 54.0225 110.715C54.3585 110.449 54.7639 110.184 55.225 109.936V112.102C55.2054 112.115 55.1798 112.13 55.1617 112.145Z"/>
<path d="M55.2241 108.599L54.3124 108.305C53.9341 108.185 53.6763 107.833 53.6763 107.437V103.239L55.2241 102.532V108.599V108.599Z"/>
<path d="M40.0983 109.449L39.9883 109.498V152.385L41.8193 153.414V153.462L39 151.941V109.861L40.0983 109.449V109.449Z"/>
<path d="M39.9888 109.499L40.0987 109.449L41.8183 108.802V120.468L40.81 120.679C40.563 120.73 40.4032 120.974 40.456 121.221C40.5012 121.434 40.6911 121.584 40.9033 121.584C40.9352 121.584 40.9652 121.579 40.997 121.573L41.8183 121.402V146.756L41.0708 146.463C40.8386 146.374 40.5706 146.485 40.4784 146.72C40.3866 146.953 40.4998 147.22 40.7363 147.312L41.8183 147.739V153.414L39.9888 152.386V109.499V109.499Z"/>
<path d="M53.3935 152.302L41.8184 147.74V146.755L53.3935 151.321V152.302V152.302Z"/>
<path d="M53.8608 151.504C54.0188 151.567 54.0911 151.712 54.1154 151.865C53.9917 151.894 53.8713 151.942 53.7642 152.022C53.6467 152.109 53.5639 152.224 53.502 152.345L53.3936 152.302V151.321L53.8608 151.504Z"/>
<path d="M54.1153 151.866C54.1258 151.944 54.1482 152.021 54.1182 152.096C54.0473 152.275 53.8755 152.387 53.6933 152.387C53.6376 152.387 53.5804 152.376 53.5262 152.355L53.502 152.344C53.5638 152.223 53.6466 152.11 53.7641 152.022C53.8712 151.943 53.9916 151.894 54.1153 151.866"/>
<path d="M40.7366 147.312C40.5001 147.219 40.3873 146.954 40.4792 146.719C40.571 146.486 40.8393 146.374 41.0712 146.463L41.8186 146.757V147.74L40.7366 147.312V147.312Z"/>
<path d="M53.3935 118.976L41.8184 121.401V120.469L53.3935 118.043V118.976Z"/>
<path d="M53.6 118C53.8441 117.947 54.0897 118.105 54.1407 118.352C54.1935 118.599 54.034 118.843 53.7866 118.894L53.3936 118.975V118.044L53.6 118V118Z"/>
<path d="M40.9968 121.573C40.9653 121.579 40.9349 121.584 40.9035 121.584C40.6908 121.584 40.501 121.434 40.4558 121.221C40.4033 120.974 40.5628 120.73 40.8102 120.679L41.818 120.469V121.402L40.9968 121.573Z"/>
<path d="M90.7504 158.933L90.6719 159.007L90.6885 158.933H90.7504Z"/>
<path d="M89.6773 158.933H89.7496L89.4737 160.142L77.1091 171.864L77.1073 171.858C77.1753 171.792 77.2552 171.741 77.3019 171.652C77.5355 171.205 77.3623 170.653 76.916 170.419C76.7323 170.323 76.5576 170.216 76.375 170.12L89.439 157.735L89.6773 158.933V158.933Z"/>
<path d="M77.3015 171.652C77.2549 171.741 77.175 171.792 77.1073 171.858L76.937 171.124C76.8799 170.88 76.6401 170.717 76.3884 170.784C76.1414 170.841 75.9892 171.086 76.0463 171.331L76.2152 172.057C76.081 172.012 75.9545 171.946 75.8507 171.837C75.5147 171.483 75.5295 170.923 75.8821 170.586L76.3765 170.118C76.5588 170.216 76.732 170.323 76.916 170.419C77.3634 170.652 77.5366 171.205 77.3015 171.652"/>
<path d="M89.5127 158.019C89.5127 158.282 89.6288 158.516 89.8064 158.683L89.7507 158.933H89.6769L89.4404 157.736L89.7041 157.486C89.5927 157.637 89.5127 157.814 89.5127 158.019Z"/>
<path d="M90.875 158.119C90.9292 157.873 90.7755 157.629 90.53 157.572C90.2812 157.517 90.04 157.672 89.9814 157.917L89.8081 158.683C89.6288 158.516 89.5127 158.281 89.5127 158.02C89.5127 157.815 89.5926 157.637 89.7054 157.485C89.7431 157.434 89.8006 157.402 89.8472 157.358C90.2059 157.048 90.7408 157.064 91.0706 157.41C91.4051 157.763 91.3903 158.323 91.0377 158.659L90.7498 158.933H90.6894L90.875 158.119Z"/>
<path d="M89.8468 157.359C89.7998 157.402 89.7427 157.434 89.7051 157.485L89.8179 157.377C89.827 157.369 89.8378 157.368 89.8468 157.359Z"/>
<path d="M89.75 158.933H90.6889L90.6722 159.007L89.4741 160.142L89.75 158.933Z"/>
<path d="M76.3883 170.783C76.64 170.717 76.8797 170.88 76.9369 171.125L77.1072 171.858C77.0996 171.864 77.0935 171.873 77.0859 171.881C76.9174 172.033 76.7047 172.111 76.4924 172.111C76.3973 172.111 76.3055 172.085 76.2151 172.057L76.0462 171.331C75.989 171.086 76.1413 170.84 76.3883 170.783"/>
<path d="M90.4281 158.934H89.75L89.8071 158.683C89.9699 158.836 90.1868 158.934 90.4281 158.934Z"/>
<path d="M89.9817 157.917C90.0403 157.672 90.2815 157.515 90.5285 157.573C90.7758 157.63 90.9295 157.873 90.8753 158.119L90.6897 158.933H90.4276C90.1864 158.933 89.9712 158.834 89.8066 158.683L89.9817 157.917Z"/>
<path d="M141.264 193.407L141.028 194.427C141.136 194.576 141.215 194.754 141.215 194.952C141.215 195.321 140.993 195.633 140.68 195.779C140.686 195.776 140.693 195.777 140.701 195.774C153.198 189.671 165.979 174.851 174.115 157.062L171.355 158.614C163.683 174.354 152.418 187.384 141.264 193.407"/>
<path d="M174.333 105.421L174.536 105.879L177.035 107.021C177.03 107.009 177.031 106.994 177.026 106.98L176.007 104.684C173.227 98.3843 171.218 93.8326 165.18 87.3588C165.117 87.2898 165.037 87.2446 164.959 87.2009L164.938 89.808C169.925 95.4402 171.803 99.6862 174.333 105.421Z"/>
<path d="M138.257 68.3025H138.575C138.439 68.0962 138.383 67.839 138.449 67.5814C138.575 67.0937 139.069 66.8004 139.56 66.9221L139.647 66.9449C133.87 64.0622 123.579 61.0024 111.881 61.0024V62.8296C122.887 62.8296 132.574 65.5993 138.257 68.3025Z"/>
<path d="M111.882 61.0029C111.663 61.0029 111.442 61.0134 111.222 61.0181V61.2899C111.389 61.1149 111.619 61.0029 111.882 61.0029Z"/>
<path d="M111.221 61.2887V62.5425C111.388 62.7188 111.62 62.8287 111.881 62.8287V61.0029C111.62 61.0029 111.388 61.1142 111.221 61.2887Z"/>
<path d="M146.064 170.119L146.557 170.587C146.911 170.923 146.925 171.483 146.59 171.838C146.485 171.946 146.358 172.013 146.224 172.056L146.221 172.076C146.271 172.059 146.323 172.062 146.372 172.036C154.671 167.703 161.814 161.97 167.215 155.377V152.439C161.951 159.444 154.65 165.539 146.064 170.119Z"/>
<path d="M159.959 109.008L160.525 108.827C160.479 108.831 160.435 108.834 160.378 108.841C160.219 108.857 160.082 108.924 159.959 109.008"/>
<path d="M160.897 110.627C161.031 110.615 161.126 110.606 161.259 110.597L161.618 110.567C164.034 110.374 166.128 111.262 167.215 112.1V109.936C166.681 109.648 166.068 109.39 165.393 109.183L160.897 110.627V110.627Z"/>
<path d="M139.384 115.364H111.222V115.819H139.384V115.364Z"/>
<path d="M140.299 117.189C140.107 117.189 139.919 117.129 139.761 117.015C139.658 116.939 139.583 116.84 139.52 116.733H111.22V117.189H139.185L131.261 157.105H132.011C132.243 157.105 132.435 157.214 132.593 157.358C132.602 157.367 132.613 157.369 132.62 157.376L132.734 157.485L132.998 157.735L141.09 116.982L140.579 117.146C140.487 117.176 140.392 117.189 140.299 117.189Z"/>
<path d="M139.478 195.355C139.274 194.942 139.427 194.462 139.795 194.209L139.758 194.039H111.221V195.868H140.299C139.96 195.868 139.635 195.68 139.478 195.355Z"/>
<path d="M141.214 194.953C141.214 194.753 141.136 194.577 141.027 194.426L140.88 195.057C140.833 195.263 140.648 195.41 140.435 195.41H140.434C140.221 195.41 140.036 195.263 139.989 195.054L139.796 194.209C139.426 194.462 139.275 194.941 139.478 195.355C139.635 195.678 139.961 195.867 140.299 195.867C140.427 195.867 140.556 195.836 140.681 195.779C140.994 195.633 141.214 195.322 141.214 194.953"/>
<path d="M131.37 157.41C131.7 157.064 132.235 157.049 132.593 157.359C132.435 157.213 132.244 157.105 132.012 157.105H111.221V158.934H131.689L131.401 158.66C131.049 158.322 131.034 157.762 131.37 157.41Z"/>
<path d="M145.949 172.143C145.723 172.143 145.523 172.033 145.353 171.88C145.349 171.875 145.343 171.874 145.339 171.869L145.331 171.863L140.44 192.915L132.965 160.141L131.767 159.006L139.758 194.039H140.073C140.469 193.844 140.867 193.622 141.265 193.407L146.22 172.075C146.13 172.104 146.041 172.143 145.949 172.143Z"/>
<path d="M140.299 194.039C140.603 194.039 140.861 194.197 141.027 194.427L141.265 193.407C140.867 193.622 140.47 193.843 140.073 194.039H140.299Z"/>
<path d="M145.354 171.88C145.522 172.034 145.723 172.144 145.95 172.144C146.041 172.144 146.131 172.103 146.22 172.076L146.224 172.057C146.134 172.087 146.042 172.111 145.949 172.111C145.733 172.111 145.522 172.034 145.354 171.88"/>
<path d="M140.072 194.039H139.757L139.794 194.21C139.832 194.187 139.856 194.152 139.897 194.133C139.954 194.105 140.013 194.069 140.072 194.039Z"/>
<path d="M140.072 194.039C140.013 194.069 139.955 194.105 139.898 194.132C139.857 194.152 139.833 194.186 139.795 194.209L139.988 195.055C140.036 195.263 140.222 195.41 140.434 195.41H140.435C140.648 195.41 140.833 195.263 140.88 195.058L141.028 194.427C140.86 194.197 140.604 194.039 140.298 194.039H140.072Z"/>
<path d="M128.76 68.503C128.729 68.5425 128.731 68.5907 128.716 68.636C128.738 68.5726 128.765 68.5135 128.809 68.4668C128.794 68.482 128.773 68.4849 128.76 68.503"/>
<path d="M145.195 74.4904L140.386 72.937L145.195 74.4904Z"/>
<path d="M145.195 102.23V101.991L141.657 98.9066C141.057 86.8682 132.969 73.6647 130.359 69.6968L129.004 69.259C128.896 69.2243 128.811 69.1492 128.751 69.0603C128.756 69.0661 128.753 69.0722 128.757 69.0769C128.869 69.2362 140.087 85.1024 140.687 99.1595C140.692 99.2931 140.753 99.4196 140.854 99.5084L144.163 102.394L145.166 102.228C145.175 102.227 145.184 102.23 145.195 102.23"/>
<path d="M145.762 73.6438L139.855 71.7339L145.762 73.6438Z"/>
<path d="M130.359 69.6973L140.385 72.938L130.359 69.6973Z"/>
<path d="M128.67 68.7163C128.668 68.7301 128.679 68.7391 128.677 68.7525C128.682 68.7119 128.701 68.6743 128.715 68.6348C128.704 68.6652 128.676 68.6848 128.67 68.7163Z"/>
<path d="M129.089 68.3269C129.161 68.3179 129.234 68.3042 129.307 68.3269L139.856 71.7346L132.257 69.2795L140.789 69.2705L146.718 70.6328L139.109 68.6925C139.07 68.6835 139.04 68.6564 139.003 68.643C138.976 68.6326 138.949 68.6369 138.924 68.6235C138.711 68.5166 138.481 68.4097 138.256 68.3027H129.155C129.129 68.3027 129.113 68.324 129.089 68.3269"/>
<path d="M139.004 68.644C138.826 68.5712 138.674 68.4567 138.574 68.3027H138.256C138.481 68.41 138.712 68.5169 138.924 68.6241C138.95 68.6379 138.977 68.6332 139.004 68.644Z"/>
<path d="M130.358 69.697L140.385 72.9378L145.194 74.4911V74.1342C145.194 73.8633 145.413 73.6436 145.684 73.6436H145.762L139.856 71.7352L129.307 68.3258C129.233 68.3034 129.161 68.3167 129.088 68.3258C129.024 68.3362 128.971 68.3575 128.915 68.3904C128.876 68.4146 128.841 68.4327 128.809 68.4659C128.764 68.5125 128.739 68.5728 128.715 68.6343C128.701 68.6736 128.681 68.7112 128.677 68.7517C128.671 68.8239 128.693 68.8904 128.719 68.9594C128.731 68.9941 128.731 69.0302 128.751 69.0605C128.811 69.149 128.894 69.2245 129.004 69.2592L130.358 69.697V69.697Z"/>
<path d="M160.257 100.85C159.991 100.842 159.782 100.622 159.788 100.356L159.799 99.9751L149.836 102.019L149.831 102.612L148.898 102.606C148.898 102.641 148.871 102.669 148.879 102.705C148.925 102.933 149.128 103.089 149.352 103.089C149.382 103.089 149.415 103.086 149.447 103.079L160.365 100.839C160.412 100.83 160.433 100.788 160.474 100.767C160.407 100.801 160.349 100.85 160.269 100.85H160.257Z"/>
<path d="M145.684 74.6247C145.633 74.6247 145.583 74.6172 145.534 74.6005L145.194 74.4907V102.23C145.636 102.172 146.049 102.451 146.175 102.877V74.6247H145.684V74.6247Z"/>
<path d="M145.836 73.6674C146.038 73.7339 146.177 73.9221 146.177 74.1341V74.6247H162.382L158.535 73.6436H145.762L145.836 73.6674Z"/>
<path d="M145.684 74.6246H146.175V74.1337C146.175 73.9216 146.037 73.7334 145.836 73.6673L145.762 73.6445H145.684C145.413 73.6445 145.194 73.8627 145.194 74.1337V74.4906L145.534 74.6004C145.583 74.617 145.633 74.6246 145.684 74.6246"/>
<path d="M149.971 79.1979L160.336 78.8699L160.25 82.219L160.69 82.1919C160.957 82.1843 161.183 82.3754 161.201 82.6402L161.309 78.3851C161.314 78.2525 161.263 78.1261 161.169 78.0329C161.076 77.9397 160.951 77.8718 160.814 77.8931L149.478 78.2525C149.22 78.2601 149.021 78.474 149.02 78.7283L149.974 78.7359L149.971 79.1979Z"/>
<path d="M160.753 83.1501L160.226 83.183L160.132 86.9175L160.551 86.8738C160.811 86.8406 161.053 87.0378 161.081 87.3012C161.107 87.5645 160.916 87.8011 160.652 87.8297L160.106 87.8867L160.016 91.4511L160.2 91.424C160.474 91.3846 160.708 91.5685 160.745 91.8304C160.784 92.0923 160.601 92.3362 160.34 92.3752L159.99 92.4265L159.903 95.9078L160.18 95.8568C160.464 95.8117 160.694 95.98 160.742 96.2405C160.79 96.5024 160.619 96.7524 160.358 96.8019L159.877 96.8907L159.799 99.9765L160.173 99.8981C160.438 99.8453 160.687 100.014 160.741 100.273C160.759 100.357 160.721 100.428 160.697 100.505C160.71 100.461 160.748 100.429 160.75 100.383L161.202 82.6411C161.218 82.9045 161.016 83.1335 160.753 83.1501"/>
<path d="M160.173 99.8987L159.799 99.9757L159.788 100.356C159.781 100.623 159.992 100.843 160.257 100.85H160.267C160.347 100.85 160.406 100.802 160.473 100.767C160.531 100.737 160.584 100.715 160.626 100.663C160.665 100.617 160.677 100.564 160.697 100.505C160.72 100.429 160.759 100.356 160.74 100.274C160.686 100.015 160.438 99.8446 160.173 99.8987"/>
<path d="M149.254 102.139L149.836 102.02L149.854 98.7554C149.839 98.7583 149.822 98.7597 149.806 98.7597C149.578 98.7597 149.376 98.5986 149.334 98.3685C149.285 98.108 149.456 97.8566 149.719 97.8071L149.86 97.78L149.884 93.9071L149.724 93.9299C149.702 93.9328 149.676 93.9342 149.655 93.9342C149.419 93.9342 149.215 93.7641 149.179 93.5235C149.141 93.2612 149.324 93.0174 149.586 92.9784L149.89 92.9347L149.913 88.9657L149.856 88.9718C149.84 88.9733 149.822 88.9747 149.806 88.9747C149.563 88.9747 149.354 88.7912 149.328 88.5441C149.299 88.2808 149.491 88.0445 149.756 88.016L149.917 87.9979L149.943 83.8375L149.685 83.8555C149.675 83.8555 149.664 83.857 149.655 83.857C149.404 83.857 149.191 83.6615 149.175 83.4054C149.159 83.1406 149.36 82.9134 149.623 82.8968L149.949 82.8758L149.972 79.1984L149.509 79.2136C149.248 79.2573 149.021 79.012 149.013 78.7486C149.013 78.7411 149.021 78.7363 149.021 78.7288H149.013L148.87 102.607H148.899C148.903 102.387 149.03 102.186 149.254 102.139"/>
<path d="M149.836 102.02L149.254 102.139C149.03 102.185 148.903 102.387 148.898 102.607L149.831 102.613L149.836 102.02Z"/>
<path d="M149.509 79.2128L149.972 79.1977L149.975 78.7356L149.021 78.7295C149.021 78.7371 149.014 78.7418 149.014 78.7476C149.021 79.0127 149.249 79.2565 149.509 79.2128"/>
<path fill-rule="evenodd" clip-rule="evenodd" d="M149.882 82.8802L160.251 82.2195L160.312 83.1771L149.943 83.8375L149.882 82.8802Z"/>
<path d="M160.691 82.1916L160.25 82.2202L160.225 83.1836L160.752 83.1504C161.016 83.1338 161.218 82.9051 161.202 82.6417V82.6399C161.183 82.3751 160.957 82.184 160.691 82.1916"/>
<path d="M149.624 82.8964C149.36 82.9131 149.158 83.1417 149.175 83.4051C149.191 83.6612 149.404 83.8566 149.656 83.8566C149.665 83.8566 149.675 83.8552 149.686 83.8552L149.943 83.8371L149.949 82.8755L149.624 82.8964Z"/>
<path d="M160.132 86.9178L149.918 87.9983L149.914 88.9646L160.106 87.8871L160.132 86.9175V86.9178Z"/>
<path d="M160.65 87.829C160.915 87.8005 161.107 87.5642 161.08 87.3009C161.053 87.0375 160.81 86.8403 160.551 86.8735L160.131 86.9187L160.106 87.8865L160.65 87.829Z"/>
<path d="M149.756 88.0159C149.491 88.0444 149.299 88.2807 149.328 88.5444C149.353 88.7911 149.563 88.9746 149.805 88.9746C149.822 88.9746 149.84 88.9732 149.855 88.9717L149.912 88.9656L149.917 87.9978L149.756 88.0159V88.0159Z"/>
<path d="M160.015 91.4507L149.889 92.9347L149.883 93.9071L159.989 92.426L160.015 91.4507V91.4507Z"/>
<path d="M160.339 92.3752C160.601 92.3358 160.783 92.092 160.746 91.8301C160.706 91.5682 160.475 91.3847 160.199 91.4237L160.015 91.4508L159.991 92.4261L160.339 92.3752H160.339Z"/>
<path d="M149.586 92.9783C149.323 93.0173 149.141 93.2615 149.179 93.5234C149.215 93.7625 149.42 93.9341 149.655 93.9341C149.677 93.9341 149.702 93.9327 149.726 93.9298L149.884 93.907L149.89 92.9346L149.586 92.9783V92.9783Z"/>
<path d="M159.877 96.8912L159.902 95.9082L149.861 97.7805L149.855 98.7559C149.867 98.7544 149.881 98.7544 149.896 98.7516L159.877 96.8912Z"/>
<path d="M160.358 96.8017C160.619 96.7519 160.791 96.5023 160.742 96.2404C160.694 95.9814 160.462 95.8112 160.18 95.8564L159.902 95.9077L159.877 96.8921L160.358 96.8017V96.8017Z"/>
<path d="M149.718 97.8071C149.456 97.8566 149.284 98.108 149.334 98.3685C149.376 98.599 149.578 98.7597 149.807 98.7597C149.822 98.7597 149.839 98.7583 149.855 98.7554L149.861 97.78L149.718 97.8071V97.8071Z"/>
<path d="M139.384 104.411V103.953C139.384 103.785 139.441 103.634 139.522 103.498H111.222V104.411H139.384Z"/>
<path d="M139.384 115.819L111.222 115.819V116.733H139.521C139.438 116.594 139.384 116.442 139.384 116.277V115.819V115.819Z"/>
<path d="M140.151 68.218C140.133 68.2541 140.095 68.2689 140.073 68.3021H140.898L164.269 73.6561C164.323 73.6695 164.354 73.7146 164.4 73.7435C164.433 73.7645 164.48 73.7598 164.507 73.7887C164.516 73.7992 164.513 73.8158 164.522 73.8263C164.572 73.8848 164.587 73.9556 164.605 74.0307C164.614 74.0701 164.65 74.0986 164.65 74.1391L164.537 87.0702C164.685 87.0749 164.827 87.1258 164.959 87.2013L165.074 74.1424C165.077 73.7208 164.792 73.3534 164.384 73.2483L139.646 66.9446C139.678 66.9612 139.714 66.976 139.744 66.9926C140.195 67.2184 140.377 67.7679 140.151 68.218"/>
<path d="M163.937 100.066H163.932C163.66 100.064 163.443 99.8427 163.446 99.5703L163.663 74.625H162.383L163.238 74.8417L163.022 99.5674C163.021 99.8564 163.155 100.129 163.385 100.305C163.614 100.478 163.914 100.532 164.193 100.452L166.932 99.6516V106.771L160.525 108.827C160.798 108.8 160.92 108.79 161.117 108.774L161.47 108.747C162.907 108.631 164.238 108.829 165.394 109.184L167.216 108.599V102.531L168.762 103.238V98.4324C168.762 98.1448 168.626 97.8739 168.395 97.7009C168.165 97.5278 167.868 97.4737 167.591 97.5564L164.862 98.3526L164.937 89.8092C164.802 89.6556 164.657 89.4992 164.517 89.3442L164.426 99.5794C164.423 99.8488 164.205 100.066 163.937 100.066"/>
<path d="M140.755 115.363H141.413L141.091 116.981L160.896 110.628C160.809 110.635 160.709 110.644 160.563 110.659C160.07 110.712 159.611 110.345 159.561 109.842C159.527 109.499 159.695 109.19 159.959 109.008L141.215 115.024V104.73L145.462 104.032C145.961 103.949 146.3 103.479 146.216 102.981C146.209 102.943 146.186 102.914 146.177 102.877V103.07C146.177 103.189 146.124 103.29 146.048 103.378C146.026 103.404 146.003 103.417 145.978 103.439C145.946 103.464 145.926 103.499 145.887 103.515C145.822 103.544 145.753 103.559 145.684 103.559C145.569 103.559 145.453 103.519 145.363 103.439L144.163 102.394L140.151 103.053C139.875 103.098 139.656 103.27 139.522 103.497H140.755V115.363V115.363Z"/>
<path d="M139.841 104.412H139.383V115.363H139.841V104.412Z"/>
<path d="M159.833 73.6438L146.719 70.6321L158.535 73.6438H159.832H159.833Z"/>
<path d="M164.517 89.3449C164.657 89.4999 164.802 89.6563 164.937 89.8084L164.96 87.2017C164.827 87.1247 164.685 87.0753 164.538 87.0706L164.517 89.3449Z"/>
<path d="M138.449 67.5814C138.383 67.839 138.439 68.0962 138.575 68.3025H140.073C140.096 68.2692 140.134 68.2544 140.152 68.2183C140.378 67.7682 140.196 67.2188 139.745 66.9915C139.715 66.9764 139.677 66.9597 139.647 66.9446L139.56 66.9222C139.069 66.8001 138.575 67.0938 138.449 67.5814"/>
<path d="M159.562 109.841C159.611 110.344 160.072 110.713 160.563 110.658C160.71 110.644 160.808 110.635 160.897 110.627L165.393 109.184C164.239 108.828 162.909 108.631 161.471 108.747L161.117 108.776C160.92 108.79 160.798 108.8 160.527 108.827L159.96 109.007C159.696 109.191 159.527 109.498 159.562 109.841"/>
<path d="M139.843 115.364H139.385V115.819H139.843V115.364Z"/>
<path d="M140.755 115.363V116.734H139.521C139.584 116.84 139.658 116.939 139.76 117.014C139.918 117.13 140.107 117.189 140.298 117.189C140.392 117.189 140.486 117.175 140.578 117.147L141.091 116.981L141.413 115.363H140.755V115.363Z"/>
<path d="M145.684 103.559C145.413 103.559 145.195 103.34 145.195 103.069V102.23C145.184 102.23 145.175 102.227 145.166 102.229L144.163 102.394L145.362 103.439C145.454 103.519 145.57 103.559 145.684 103.559"/>
<path d="M145.887 103.516C145.925 103.5 145.946 103.463 145.978 103.439C145.893 103.504 145.798 103.56 145.684 103.56C145.753 103.56 145.822 103.545 145.887 103.516Z"/>
<path d="M139.004 68.6427C139.04 68.6564 139.07 68.6835 139.11 68.6925L146.719 70.6328L159.832 73.6444H164.158C164.249 73.6444 164.324 73.6972 164.4 73.7438C164.354 73.7152 164.324 73.6686 164.27 73.6567L140.9 68.3027H140.074C139.9 68.557 139.631 68.7211 139.336 68.7211C139.224 68.7211 139.112 68.6849 139.004 68.643"/>
<path d="M139.335 68.7213C139.631 68.7213 139.9 68.5573 140.074 68.303H138.574C138.675 68.4565 138.826 68.571 139.004 68.6433C139.114 68.6852 139.224 68.7213 139.335 68.7213"/>
<path d="M164.159 74.6246H163.663L163.444 99.5714C163.441 99.8423 163.66 100.064 163.933 100.065H163.937C164.204 100.065 164.424 99.8485 164.427 99.5804L164.516 89.3453C164.294 89.1 164.076 88.8562 163.842 88.6048C163.5 88.2359 163.52 87.6579 163.889 87.3148C164.071 87.1446 164.306 87.0648 164.537 87.0709L164.65 74.1384C164.65 74.0976 164.615 74.069 164.606 74.03C164.62 74.0857 164.653 74.1308 164.647 74.1897C164.618 74.4364 164.407 74.6246 164.159 74.6246"/>
<path d="M164.507 73.7889C164.479 73.7603 164.434 73.765 164.4 73.7437C164.443 73.7708 164.489 73.7889 164.523 73.8266C164.514 73.8161 164.516 73.7994 164.507 73.7889"/>
<path d="M163.843 88.6048C164.076 88.8562 164.295 89.1 164.516 89.3453L164.537 87.0695C164.307 87.0652 164.072 87.1446 163.889 87.3148C163.52 87.658 163.499 88.236 163.843 88.6048"/>
<path d="M145.194 102.23V103.07C145.194 103.341 145.415 103.559 145.684 103.559C145.799 103.559 145.894 103.505 145.978 103.438C146.004 103.417 146.026 103.404 146.047 103.378C146.123 103.291 146.175 103.189 146.175 103.07V102.877C146.049 102.45 145.636 102.171 145.194 102.23"/>
<path d="M164.159 73.6438H158.535L162.382 74.6239H164.159C164.407 74.6239 164.618 74.4371 164.647 74.1889C164.653 74.1315 164.62 74.0849 164.606 74.0307C164.586 73.9556 164.573 73.8848 164.522 73.8262C164.49 73.7883 164.444 73.7702 164.4 73.7431C164.323 73.698 164.249 73.6438 164.159 73.6438Z"/>
<path d="M139.384 104.411H139.842V115.363H140.755V103.498H139.522C139.441 103.634 139.384 103.785 139.384 103.953V104.411Z"/>
<path d="M139.384 115.82V116.277C139.384 116.442 139.438 116.594 139.521 116.733H140.755V115.363H139.842V115.819H139.384V115.82Z"/>
<path d="M176.564 108.188C176.443 108.242 176.316 108.268 176.191 108.268C175.843 108.268 175.508 108.067 175.354 107.728L174.535 105.88L168.761 103.239V107.436C168.761 107.833 168.505 108.185 168.127 108.306L167.215 108.599V109.936C167.674 110.184 168.08 110.449 168.417 110.716C168.811 111.03 168.875 111.605 168.56 111.999C168.381 112.227 168.116 112.344 167.846 112.344C167.646 112.344 167.446 112.279 167.277 112.145C167.259 112.131 167.234 112.115 167.215 112.102V152.439C167.274 152.363 167.339 152.289 167.396 152.212C167.617 151.913 167.985 151.792 168.324 151.866C168.348 151.712 168.42 151.568 168.577 151.505L169.046 151.321V118.976L168.652 118.893C168.404 118.842 168.245 118.6 168.298 118.353C168.35 118.106 168.594 117.947 168.839 118.001L169.046 118.043V105.377L180.619 110.672V108.801L182.34 109.448L177.035 107.022C177.213 107.473 177.012 107.988 176.564 108.188Z"/>
<path d="M169.046 157.814V152.302L168.937 152.345C169.088 152.644 169.077 153.013 168.865 153.299C168.341 154.003 167.779 154.691 167.215 155.377V160.936L171.354 158.614C171.771 157.76 172.184 156.904 172.581 156.032C172.79 155.573 173.333 155.376 173.791 155.579C174.25 155.787 174.454 156.329 174.246 156.788C174.205 156.881 174.158 156.972 174.114 157.063L180.621 153.413V151.317L169.046 157.814V157.814Z"/>
<path d="M173.791 155.579C173.331 155.376 172.791 155.573 172.579 156.033C172.185 156.903 171.77 157.76 171.354 158.615L174.115 157.063C174.157 156.973 174.204 156.881 174.246 156.789C174.452 156.328 174.25 155.788 173.791 155.579"/>
<path d="M175.355 107.727C175.509 108.067 175.842 108.267 176.192 108.267C176.317 108.267 176.443 108.242 176.565 108.188C177.013 107.987 177.212 107.475 177.034 107.021L174.536 105.879L175.355 107.727V107.727Z"/>
<path d="M168.746 152.386C168.563 152.386 168.391 152.276 168.321 152.097C168.289 152.02 168.313 151.944 168.325 151.865C167.985 151.792 167.617 151.913 167.395 152.211C167.338 152.29 167.273 152.362 167.214 152.439V155.377C167.778 154.69 168.34 154.002 168.864 153.298C169.079 153.012 169.089 152.645 168.937 152.345L168.913 152.354C168.858 152.375 168.803 152.386 168.746 152.386"/>
<path d="M167.277 112.145C167.446 112.279 167.646 112.344 167.846 112.344C168.116 112.344 168.381 112.227 168.562 111.999C168.877 111.605 168.812 111.03 168.417 110.715C168.08 110.449 167.674 110.184 167.215 109.936V112.102C167.234 112.115 167.259 112.13 167.277 112.145Z"/>
<path d="M167.215 108.599L168.127 108.305C168.505 108.185 168.761 107.833 168.761 107.437V103.239L167.215 102.532V108.599V108.599Z"/>
<path d="M182.341 109.449L182.451 109.498V152.385L180.62 153.414V153.462L183.439 151.941V109.861L182.341 109.449V109.449Z"/>
<path d="M182.451 109.499L182.341 109.449L180.62 108.802V120.468L181.628 120.679C181.877 120.73 182.035 120.974 181.982 121.221C181.937 121.434 181.747 121.584 181.536 121.584C181.505 121.584 181.474 121.579 181.441 121.573L180.62 121.402V146.756L181.368 146.463C181.601 146.374 181.869 146.485 181.961 146.72C182.053 146.953 181.939 147.22 181.704 147.312L180.62 147.739V153.414L182.451 152.386V109.499H182.451Z"/>
<path d="M169.046 152.302L180.621 147.74V146.755L169.046 151.321V152.302V152.302Z"/>
<path d="M168.578 151.504C168.421 151.567 168.349 151.712 168.325 151.865C168.448 151.894 168.567 151.942 168.674 152.022C168.793 152.109 168.875 152.224 168.937 152.345L169.047 152.302V151.321L168.578 151.504Z"/>
<path d="M168.325 151.866C168.313 151.944 168.29 152.021 168.321 152.096C168.391 152.275 168.563 152.387 168.746 152.387C168.803 152.387 168.859 152.376 168.914 152.355L168.937 152.344C168.875 152.223 168.794 152.11 168.675 152.022C168.568 151.943 168.449 151.894 168.325 151.866"/>
<path d="M181.703 147.312C181.938 147.219 182.053 146.954 181.961 146.719C181.869 146.486 181.601 146.374 181.367 146.463L180.62 146.757V147.74L181.703 147.312V147.312Z"/>
<path d="M169.046 118.976L180.621 121.401V120.469L169.046 118.043V118.976V118.976Z"/>
<path d="M168.84 118C168.594 117.947 168.35 118.105 168.299 118.352C168.246 118.599 168.404 118.843 168.653 118.894L169.046 118.975V118.044L168.84 118V118Z"/>
<path d="M181.441 121.573C181.473 121.579 181.505 121.584 181.535 121.584C181.747 121.584 181.937 121.434 181.982 121.221C182.035 120.974 181.877 120.73 181.628 120.679L180.62 120.469V121.402L181.441 121.573V121.573Z"/>
<path d="M131.689 158.933L131.768 159.007L131.751 158.933H131.689Z"/>
<path d="M132.762 158.933H132.689L132.965 160.142L145.331 171.864L145.333 171.858C145.264 171.792 145.184 171.741 145.137 171.652C144.904 171.205 145.077 170.653 145.523 170.419C145.707 170.323 145.881 170.216 146.064 170.12L132.998 157.735L132.762 158.933V158.933Z"/>
<path d="M145.137 171.652C145.184 171.741 145.264 171.792 145.333 171.858L145.502 171.124C145.56 170.88 145.799 170.717 146.05 170.784C146.299 170.841 146.45 171.086 146.392 171.331L146.225 172.057C146.359 172.012 146.486 171.946 146.59 171.837C146.926 171.483 146.911 170.923 146.556 170.586L146.064 170.118C145.882 170.216 145.707 170.323 145.523 170.419C145.077 170.652 144.904 171.205 145.137 171.652Z"/>
<path d="M132.927 158.019C132.927 158.282 132.812 158.516 132.633 158.683L132.69 158.933H132.763L132.999 157.736L132.736 157.486C132.847 157.637 132.927 157.814 132.927 158.019Z"/>
<path d="M131.565 158.119C131.51 157.873 131.663 157.629 131.91 157.572C132.159 157.517 132.4 157.672 132.458 157.917L132.632 158.683C132.812 158.516 132.926 158.281 132.926 158.02C132.926 157.815 132.848 157.637 132.735 157.485C132.697 157.434 132.64 157.402 132.593 157.358C132.234 157.048 131.7 157.064 131.369 157.41C131.033 157.763 131.049 158.323 131.403 158.659L131.689 158.933H131.751L131.565 158.119V158.119Z"/>
<path d="M132.593 157.359C132.639 157.402 132.697 157.434 132.736 157.485L132.621 157.377C132.614 157.369 132.602 157.368 132.593 157.359Z"/>
<path d="M132.69 158.933H131.751L131.768 159.007L132.966 160.142L132.69 158.933Z"/>
<path d="M146.051 170.783C145.799 170.717 145.561 170.88 145.502 171.125L145.332 171.858C145.34 171.864 145.346 171.873 145.353 171.881C145.522 172.033 145.733 172.111 145.948 172.111C146.042 172.111 146.134 172.085 146.224 172.057L146.393 171.331C146.45 171.086 146.298 170.84 146.051 170.783"/>
<path d="M132.012 158.934H132.69L132.633 158.683C132.47 158.836 132.253 158.934 132.012 158.934Z"/>
<path d="M132.457 157.917C132.4 157.672 132.159 157.515 131.912 157.573C131.664 157.63 131.509 157.873 131.565 158.119L131.751 158.933H132.011C132.252 158.933 132.469 158.834 132.632 158.683L132.457 157.917Z"/>
<path d="M109.955 62.8322C109.955 62.8322 111.929 62.8232 112.561 62.8322C113.194 62.8427 111.882 61.0032 111.882 61.0032C111.882 61.0032 110.832 60.996 110.239 61.0032C109.649 61.0094 109.955 62.8322 109.955 62.8322"/>
<path d="M110.97 0L0 64.0004V192L110.97 256L221.94 192V64.0004L110.97 0V0ZM110.97 1.73867L220.433 64.8689V191.131L110.97 254.261L1.50692 191.131V64.8689L110.97 1.73867V1.73867Z"/>
</svg>
