<svg viewBox="0 0 112 24" fill="currentColor" xmlns="http://www.w3.org/2000/svg">
<path fill-rule="evenodd" clip-rule="evenodd" d="M111.49 7.50659L111.49 7.49657C111.49 3.19484 108.946 0 104.039 0C99.1556 0 96.5883 3.19483 96.5883 7.49657L96.5883 7.51464L96.5883 7.5327C96.5883 11.8457 99.1671 14.858 104.039 14.858C108.843 14.858 111.479 11.8344 111.49 7.5327L111.49 7.50659ZM104.039 2.74034C107.136 2.74034 108.392 4.80777 108.398 7.51457C108.392 10.2092 107.136 12.1063 104.039 12.1063C100.977 12.1063 99.6862 10.1978 99.6805 7.51427C99.6862 4.72837 100.977 2.74034 104.039 2.74034Z"/>
<path d="M13.8407 12.2433L13.8233 12.262L13.8407 12.2793C12.3003 13.9452 10.2351 14.8695 7.74763 14.8695C2.6586 14.8695 0 11.8457 0 7.53264L1.57949e-05 7.51477L0 7.49657C0 3.17206 2.77269 0.0113921 7.77036 0.0113921C10.3605 0.0113921 12.3117 0.832935 13.8293 2.54452L13.8123 2.56148L13.8293 2.58056L11.7412 4.66869C10.8056 3.40212 9.50475 2.74032 7.77037 2.74032C4.49142 2.74032 3.09828 4.76248 3.09221 7.51457C3.09807 10.164 4.40059 12.1178 7.75902 12.1178C9.49338 12.1178 10.8512 11.4445 11.7983 10.2122L13.8407 12.2433Z"/>
<path fill-rule="evenodd" clip-rule="evenodd" d="M21.189 0.193987L15.7464 11.8553L14.3999 14.6052H14.4176L14.3999 14.6413H17.2867L18.8842 11.2068H25.8672L27.4646 14.6413H30.2944L30.2775 14.6052H30.2944L23.5624 0.193965L21.189 0.193987ZM19.8583 8.82017H24.9388L24.7947 8.62802L22.4099 3.39068H22.3757L20.0024 8.62802L19.8583 8.82017Z"/>
<path d="M41.2596 9.74437C40.8722 8.9924 40.28 8.46793 39.8011 8.25057C41.0783 7.66809 42.2523 6.27677 42.2523 4.74863L42.2523 4.72788L42.2523 4.71241C42.2523 1.63169 39.6051 0.205373 36.7297 0.205373H29.7466V2.94578H36.7297C38.3071 2.94578 39.1622 3.57783 39.1714 4.7971C39.1628 5.72668 38.4081 6.59528 36.6156 6.61792H29.7466V9.23284H35.3491C37.0264 9.23284 37.8365 9.73487 38.4298 10.8531L40.4038 14.6642H43.8041L43.7852 14.628H43.8041L41.2596 9.74437Z"/>
<path d="M64.4853 17.8932H65.1141V23.9181H64.4114V19.4849H64.3966L63.9971 20.4445L62.1775 24H62.1626L60.3208 20.3998L59.9509 19.4849H59.9362V23.9181H59.2334V17.8932H59.8622L61.8741 21.9098L62.17 22.6165H62.1849L62.4808 21.9098L64.4853 17.8932Z"/>
<path d="M67.3702 17.8932H68.073V23.9182H67.3702V17.8932Z"/>
<path d="M75.2481 17.8932H74.5453V22.7355L74.5306 22.7355L74.0942 22.0586L70.9726 17.8932H70.329V23.9182H71.0317V19.0759H71.0465L71.5052 19.7825L74.6045 23.9182H75.248L75.2481 17.8932Z"/>
<path d="M98.1416 17.8932H98.8444V23.9182H98.2008L95.1015 19.7825L94.6429 19.0759H94.6281V23.9182H93.9254V17.8932H94.5689L97.6905 22.0586L98.1269 22.7355L98.1416 22.7355V17.8932Z"/>
<path d="M111.59 23.2487H108.165L108.239 23.1669V17.8932H107.536V23.9181H111.59V23.2487Z"/>
<path d="M57.5081 10.2693C57.5081 8.71183 56.7153 7.56212 55.5471 7.14742C56.4398 6.54184 56.8805 5.55321 56.8805 4.41764L56.8805 4.39965L56.8805 4.38156C56.8805 2.15655 55.169 0.216799 51.8486 0.216799H44.5803V2.95716H51.6775C53.2872 2.95716 53.8045 3.53154 53.8111 4.43415C53.8053 5.24819 53.4102 5.96756 51.6775 5.96756H44.5803V8.52539H51.9969C53.8573 8.52539 54.432 9.2809 54.4387 10.2539C54.4326 11.2365 53.947 11.9238 51.9969 11.9238L44.5803 11.9238V14.6641H51.9969C55.4428 14.6641 57.5081 13.0324 57.5081 10.3054L57.508 10.2881L57.5081 10.2693Z"/>
<path d="M86.4219 14.6755H88.9892L88.9893 14.6394V0.171064H85.9542V9.77856H85.9199L84.9158 8.13546L78.3207 0.171082H75.7648V14.6755H78.7998V5.01098H78.8341L79.9067 6.71109L86.4219 14.6755Z"/>
<path d="M94.4999 14.6754H91.4648V0.171147H94.4999V14.6754Z"/>
<path fill-rule="evenodd" clip-rule="evenodd" d="M59.0483 7.54408C59.0483 11.8572 61.627 14.8695 66.4992 14.8695C71.303 14.8695 73.9502 11.8572 73.9502 7.54408L73.9502 7.52586L73.9502 7.50795C73.9502 3.20629 71.4056 0.0113755 66.4992 0.0113755C61.6156 0.0113755 59.0483 3.20628 59.0483 7.50795L59.0483 7.52604L59.0483 7.54408ZM66.4992 2.76316C63.4366 2.76316 62.1462 4.75121 62.1406 7.53711C62.1462 10.2206 63.4366 12.1291 66.4992 12.1291C69.5959 12.1291 70.8524 10.2321 70.858 7.53737C70.8524 4.83062 69.6073 2.76316 66.4992 2.76316Z"/>
<path d="M52.2581 17.8933V18.5627L54.4476 18.5627C56.2525 18.5627 56.5484 19.6711 56.5484 20.9058C56.5484 22.1479 56.2673 23.2488 54.4846 23.2488L52.2581 23.2515V23.9182H54.5586C56.8739 23.9182 57.2733 22.3488 57.2733 20.9058C57.2733 19.4702 56.8664 17.8933 54.5216 17.8933H52.2581Z"/>
<path d="M80.6482 18.5656V17.8931H83.3851C84.6573 17.8931 85.3601 18.6667 85.3601 19.7527C85.3601 20.794 84.6573 21.6123 83.3776 21.6123H81.3508V23.9181H80.6482V20.9466L83.3776 20.9428C84.2357 20.9428 84.6352 20.437 84.6352 19.7527C84.6352 19.0386 84.2357 18.5626 83.3851 18.5626L80.6482 18.5656Z"/>
<path d="M101.064 17.8932H105.465V18.5713H101.064V17.8932Z"/>
<path d="M105.465 23.2508H101.064V23.9289H105.465V23.2508Z"/>
<path d="M101.064 20.5667H105.104V21.2448H101.064V20.5667Z"/>
<path fill-rule="evenodd" clip-rule="evenodd" d="M47.9794 17.8933H47.2282L44.5802 23.9182H45.3537L45.9934 22.4678L45.9562 22.3934H49.2513L49.2141 22.4678L49.8538 23.9182H50.6274L47.9794 17.8933ZM46.2761 21.724L46.3504 21.6496L47.4141 19.2322L47.6001 18.6297H47.6149L47.7934 19.2322L48.8571 21.6496L48.9315 21.724H46.2761Z"/>
<path fill-rule="evenodd" clip-rule="evenodd" d="M88.8789 17.8933H89.6301L92.2781 23.9182H91.5045L90.8648 22.4678L90.902 22.3934H87.6069L87.6441 22.4678L87.0044 23.9182H86.2309L88.8789 17.8933ZM88.0011 21.6496L87.9268 21.724H90.5822L90.5078 21.6496L89.4441 19.2322L89.2656 18.6297H89.2508L89.0648 19.2322L88.0011 21.6496Z"/>
</svg>
